<svg width="39" height="39" viewBox="0 0 39 39" fill="none" xmlns="http://www.w3.org/2000/svg">
<g clip-path="url(#clip0_27_2315)">
<path d="M0 0C12.87 0 25.74 0 39 0C39 12.87 39 25.74 39 39C26.13 39 13.26 39 0 39C0 26.13 0 13.26 0 0Z" fill="#E1DEF3"/>
<path d="M0 10.3594C6.435 10.3594 12.87 10.3594 19.5 10.3594C19.5 13.4261 19.5 16.4927 19.5 19.6523C18.4443 20.1802 18.4443 20.1802 17.3672 20.7188C16.9605 21.1599 16.7218 21.4363 16.4531 21.9375C16.3589 22.0946 16.2646 22.2517 16.1675 22.4136C15.7445 23.5204 15.8501 24.8947 16.2627 25.9841C16.9489 27.4346 18.0401 28.0567 19.5 28.6406C19.5 32.0592 19.5 35.4778 19.5 39C13.065 39 6.63 39 0 39C0 29.5486 0 20.0972 0 10.3594Z" fill="#F7F8F8"/>
<path d="M0 0C12.87 0 25.74 0 39 0C39 3.36832 39 6.73664 39 10.207C26.13 10.207 13.26 10.207 0 10.207C0 6.83871 0 3.47039 0 0Z" fill="#5E69E2"/>
<path d="M0 0C6.435 0 12.87 0 19.5 0C19.5 3.36832 19.5 6.73664 19.5 10.207C13.065 10.207 6.63 10.207 0 10.207C0 6.83871 0 3.47039 0 0Z" fill="#7D81E6"/>
<path d="M22.6992 20.1094C23.8188 20.8603 24.6969 21.9758 24.9844 23.3087C25.1551 24.7225 24.8393 25.9982 23.9721 27.1434C23.0022 28.1681 21.8043 28.7651 20.3855 28.8597C19.1018 28.8289 17.7883 28.1906 16.9102 27.2696C15.9287 25.9445 15.6469 24.6454 15.8438 23.004C16.2918 21.6297 16.9798 20.7041 18.2503 20.0386C19.8725 19.2955 21.0934 19.3053 22.6992 20.1094Z" fill="#0D4C63"/>
<path d="M5.43916 19.6032C5.59233 19.6037 5.74551 19.6042 5.90333 19.6047C6.05415 19.6022 6.20497 19.5998 6.36036 19.5973C7.19728 19.5967 7.81369 19.6287 8.53126 20.1093C9.08819 20.7127 9.42349 21.1802 9.48341 22.0041C9.44721 22.5199 9.33151 22.8377 9.14063 23.3085C9.16926 23.7666 9.30641 23.9347 9.59766 24.2988C10.1326 24.9674 10.1381 25.6686 10.0547 26.5078C9.78461 27.4292 9.31108 27.9601 8.53126 28.4882C7.7644 28.7439 6.9632 28.6687 6.16041 28.6691C5.98337 28.671 5.80633 28.6729 5.62393 28.6748C5.37075 28.6752 5.37075 28.6752 5.11245 28.6757C4.87987 28.6766 4.87987 28.6766 4.64259 28.6776C4.26563 28.6406 4.26563 28.6406 3.96094 28.3359C3.92225 27.9832 3.92225 27.9832 3.92152 27.537C3.92056 27.3702 3.9196 27.2035 3.91861 27.0317C3.91923 26.8509 3.91984 26.6702 3.92048 26.484C3.92019 26.2991 3.9199 26.1143 3.9196 25.9239C3.91939 25.5325 3.91995 25.1412 3.92122 24.7498C3.92285 24.1489 3.92124 23.5482 3.91929 22.9473C3.91949 22.5679 3.91988 22.1884 3.92048 21.8089C3.91955 21.5378 3.91955 21.5378 3.91861 21.2612C3.91957 21.0944 3.92053 20.9277 3.92152 20.7559C3.92176 20.6086 3.922 20.4614 3.92225 20.3097C4.01782 19.4385 4.74979 19.6083 5.43916 19.6032Z" fill="#107B9D"/>
<path d="M33.0205 19.9284C33.3978 20.1823 33.6844 20.3769 33.9727 20.7186C33.9354 21.2278 33.8804 21.4203 33.5156 21.7851C33.0738 21.7466 32.7156 21.6972 32.3266 21.4774C31.5265 21.1201 30.4382 21.1683 29.6273 21.472C28.9299 21.8843 28.4842 22.3446 28.252 23.1383C28.0338 24.1669 28.1766 24.9703 28.6406 25.8983C28.6909 26.0492 28.7412 26.2 28.793 26.3554C29.0722 26.5268 29.0722 26.5268 29.4023 26.6601C29.4911 26.7123 29.5799 26.7645 29.6713 26.8183C30.1025 27.0038 30.4479 27.0106 30.9163 27.0123C31.0716 27.0149 31.2269 27.0175 31.387 27.0201C31.9058 26.9567 32.1829 26.8157 32.6016 26.5077C32.9854 26.0065 33.2308 25.5975 33.3633 24.9843C33.2604 24.9913 33.1575 24.9984 33.0515 25.0057C31.9452 25.0505 31.9452 25.0505 31.4304 24.7272C31.2305 24.3749 31.2305 24.3749 31.259 23.9655C31.3828 23.6132 31.3828 23.6132 31.5352 23.4608C32.0641 23.4226 32.5951 23.4326 33.1252 23.4323C33.2746 23.4304 33.4239 23.4285 33.5778 23.4266C33.7918 23.4262 33.7918 23.4262 34.0101 23.4257C34.1416 23.4251 34.2731 23.4245 34.4085 23.4238C34.7344 23.4608 34.7344 23.4608 35.0391 23.7655C35.2303 25.1212 34.8684 26.3118 34.0917 27.414C33.408 28.2011 32.5801 28.5919 31.553 28.6768C30.1925 28.708 29.0903 28.5169 27.9836 27.6884C26.9931 26.6748 26.4711 25.5563 26.4316 24.1273C26.4519 22.8512 26.8528 21.8624 27.6665 20.8805C29.0229 19.5917 31.3048 19.1085 33.0205 19.9284Z" fill="#0E4B62"/>
<path d="M21.5441 21.2865C22.403 21.6829 22.9442 22.2821 23.3086 23.1563C23.4452 24.1376 23.455 25.0455 22.9277 25.908C22.3137 26.6848 21.7136 27.0419 20.7342 27.1791C19.8096 27.2257 19.1303 27.1371 18.3759 26.5835C17.7331 25.9902 17.4186 25.3667 17.3362 24.5102C17.3145 23.491 17.502 22.7677 18.186 21.9757C19.2076 21.1001 20.2344 20.893 21.5441 21.2865Z" fill="#E0DEF3"/>
<path d="M12.3399 19.6143C12.7969 19.6523 12.7969 19.6523 13.1016 19.957C13.1382 20.2713 13.1382 20.2713 13.1362 20.6629C13.1361 20.8825 13.1361 20.8825 13.1361 21.1065C13.1345 21.2648 13.1329 21.4232 13.1313 21.5864C13.1309 21.7483 13.1305 21.9102 13.13 22.0769C13.1283 22.5954 13.1245 23.1139 13.1206 23.6323C13.1191 23.9832 13.1177 24.3341 13.1164 24.685C13.1131 25.5466 13.108 26.408 13.1016 27.2695C13.274 27.2642 13.4464 27.2589 13.6241 27.2535C13.8498 27.2492 14.0755 27.245 14.3013 27.241C14.415 27.2371 14.5287 27.2333 14.6458 27.2294C14.9761 27.2249 14.9761 27.2249 15.5391 27.2695C15.8438 27.7266 15.8438 27.7266 15.7961 28.1265C15.6914 28.4883 15.6914 28.4883 15.5391 28.6406C14.9339 28.6833 14.3269 28.6759 13.7205 28.6787C13.5493 28.6819 13.3782 28.685 13.2018 28.6882C13.0386 28.689 12.8753 28.6898 12.707 28.6906C12.5564 28.692 12.4058 28.6935 12.2506 28.6949C12.1292 28.677 12.0079 28.6591 11.8828 28.6406C11.5446 28.1333 11.5397 27.9727 11.5387 27.3814C11.5373 27.1358 11.5373 27.1358 11.5358 26.8854C11.5364 26.7087 11.537 26.5321 11.5377 26.3501C11.5374 26.1689 11.5371 25.9877 11.5368 25.8009C11.5366 25.4177 11.5371 25.0344 11.5384 24.6511C11.54 24.0626 11.5384 23.4742 11.5365 22.8858C11.5367 22.5139 11.5371 22.1421 11.5377 21.7703C11.537 21.5933 11.5364 21.4164 11.5358 21.2341C11.5368 21.0709 11.5377 20.9077 11.5387 20.7395C11.5389 20.5955 11.5392 20.4514 11.5394 20.3029C11.6025 19.739 11.7926 19.6599 12.3399 19.6143Z" fill="#0F7A9D"/>
<path d="M19.5 19.6523C19.5638 20.1742 19.5928 20.6565 19.5 21.1758C19.1981 21.5363 18.8642 21.7524 18.4336 21.9375C18.333 21.9375 18.2325 21.9375 18.1289 21.9375C17.6193 22.8839 17.3929 23.7612 17.5195 24.832C17.6403 25.2141 17.7961 25.5376 17.9766 25.8984C18.0268 26.0493 18.0771 26.2001 18.1289 26.3555C18.4632 26.5465 18.7949 26.6808 19.1572 26.8125C19.5 27.1172 19.5 27.1172 19.5482 27.4855C19.5477 27.8733 19.5326 28.2543 19.5 28.6406C18.077 28.2651 17.0649 27.6549 16.302 26.3745C15.7163 25.1395 15.584 23.8007 16.011 22.4909C16.7063 21.0039 17.5181 20.318 19.037 19.7535C19.3477 19.6523 19.3477 19.6523 19.5 19.6523Z" fill="#107B9D"/>
<path d="M19.5 21.3281C19.5 23.1882 19.5 25.0484 19.5 26.9648C18.5699 26.7788 18.3024 26.4348 17.71 25.7366C17.2708 25.0558 17.2942 24.2448 17.3672 23.4609C17.6762 22.4851 18.3615 21.3281 19.5 21.3281Z" fill="#F6F7F7"/>
<path d="M17.5862 3.88489C17.8828 3.87782 17.8828 3.87782 18.1854 3.87061C18.8656 3.98189 19.0901 4.17779 19.5 4.72278C19.5 5.24292 19.4653 5.59827 19.19 6.04507C18.7025 6.37263 18.1725 6.32429 17.6052 6.32239C17.4889 6.32671 17.3725 6.33103 17.2526 6.33548C16.6317 6.33764 16.3887 6.32615 15.9146 5.89511C15.6914 5.4845 15.6914 5.4845 15.6914 4.93225C15.9905 3.92285 16.6065 3.89265 17.5862 3.88489Z" fill="#FB80A8"/>
<path d="M11.4924 3.88489C11.7891 3.87782 11.7891 3.87782 12.0917 3.87061C12.7719 3.98189 12.9963 4.17779 13.4062 4.72278C13.4062 5.24292 13.3716 5.59827 13.0962 6.04507C12.6087 6.37263 12.0788 6.32429 11.5115 6.32239C11.3951 6.32671 11.2788 6.33103 11.1589 6.33548C10.538 6.33764 10.295 6.32615 9.82082 5.89511C9.59766 5.4845 9.59766 5.4845 9.59766 4.93225C9.89674 3.92285 10.5128 3.89265 11.4924 3.88489Z" fill="#8FE06D"/>
<path d="M5.39868 3.88489C5.69531 3.87782 5.69531 3.87782 5.99794 3.87061C6.67811 3.98189 6.90257 4.17779 7.3125 4.72278C7.3125 5.24292 7.27782 5.59827 7.00246 6.04507C6.515 6.37263 5.98503 6.32429 5.41772 6.32239C5.30137 6.32671 5.18501 6.33103 5.06513 6.33548C4.44425 6.33764 4.20121 6.32615 3.72707 5.89511C3.50391 5.4845 3.50391 5.4845 3.50391 4.93225C3.80299 3.92285 4.41905 3.89265 5.39868 3.88489Z" fill="#FBF3A1"/>
<path d="M5.48438 24.6797C6.0688 24.6609 6.0688 24.6609 6.66504 24.6417C6.78675 24.6361 6.90845 24.6306 7.03385 24.6248C7.5653 24.6165 7.86568 24.639 8.30035 24.9541C8.63957 25.4463 8.61326 25.7712 8.53125 26.3555C8.30035 26.7673 8.30035 26.7673 7.92188 27.1172C7.46334 27.1748 7.11699 27.1906 6.66504 27.1648C6.27542 27.1491 5.8858 27.1334 5.48438 27.1172C5.48438 26.3129 5.48438 25.5085 5.48438 24.6797Z" fill="#F6F7F8"/>
<path d="M5.48438 21.1757C5.80476 21.1593 6.12539 21.1474 6.44604 21.1376C6.71381 21.127 6.71381 21.127 6.98698 21.1162C7.46484 21.1757 7.46484 21.1757 7.75882 21.453C7.98815 21.9201 7.90853 22.2073 7.76953 22.6992C7.46484 23.0038 7.46484 23.0038 7.00186 23.0336C6.82158 23.0301 6.64131 23.0265 6.45557 23.0229C6.2745 23.0201 6.09344 23.0174 5.90689 23.0146C5.76746 23.011 5.62803 23.0075 5.48438 23.0038C5.48438 22.4006 5.48438 21.7973 5.48438 21.1757Z" fill="#F4F6F7"/>
<path d="M38.8477 36.5625C38.8979 36.5625 38.9482 36.5625 39 36.5625C39 37.3669 39 38.1712 39 39C38.1956 39 37.3913 39 36.5625 39C36.8606 38.8012 37.1621 38.6073 37.467 38.4192C38.178 37.9114 38.5651 37.3867 38.8477 36.5625Z" fill="black"/>
<path d="M0 36.7148C0.457031 37.3242 0.457031 37.3242 0.664124 37.6009C1.19547 38.2681 1.62937 38.5729 2.4375 38.8477C2.4375 38.8979 2.4375 38.9482 2.4375 39C1.63312 39 0.82875 39 0 39C0 38.2459 0 37.4918 0 36.7148Z" fill="black"/>
<path d="M36.7148 0C37.4689 0 38.223 0 39 0C39 0.754102 39 1.5082 39 2.28516C38.8492 2.08406 38.6984 1.88297 38.543 1.67578C38.0032 0.972691 37.5591 0.494078 36.7148 0.152344C36.7148 0.10207 36.7148 0.0517969 36.7148 0Z" fill="black"/>
<path d="M0 0C0.754102 0 1.5082 0 2.28516 0C2.08406 0.15082 1.88297 0.301641 1.67578 0.457031C0.972691 0.996823 0.494078 1.44087 0.152344 2.28516C0.10207 2.28516 0.0517969 2.28516 0 2.28516C0 1.53105 0 0.776953 0 0Z" fill="black"/>
</g>
<defs>
<clipPath id="clip0_27_2315">
<rect width="39" height="39" fill="white"/>
</clipPath>
</defs>
</svg>
