<svg width="39" height="39" viewBox="0 0 39 39" fill="none" xmlns="http://www.w3.org/2000/svg">
<g clip-path="url(#clip0_27_2368)">
<path d="M28.9453 2.54996e-05C29.3806 -0.0566943 29.3806 -0.0566943 29.9308 -0.0553181C30.1278 -0.0552199 30.3247 -0.0551217 30.5277 -0.0550206C30.6304 -0.0537564 30.7332 -0.0524922 30.8391 -0.0511897C31.1531 -0.0475954 31.4669 -0.0480572 31.7809 -0.0490697C33.3226 -0.0406156 33.3226 -0.0406156 33.668 0.304713C33.6977 0.701045 33.6977 0.701045 33.687 1.16165C33.6843 1.31443 33.6815 1.46721 33.6787 1.62463C33.6751 1.74206 33.6716 1.8595 33.668 1.98049C33.7968 2.00459 33.7968 2.00459 33.9283 2.02918C34.3242 2.10387 34.7197 2.18023 35.1152 2.25662C35.3179 2.29447 35.3179 2.29447 35.5247 2.33309C36.7583 2.57347 37.8583 2.79932 38.6953 3.80862C39.1867 4.60388 39.094 5.49836 39 6.39846C38.6798 7.61075 38.0793 8.71966 37.5138 9.83252C37.0758 10.6958 36.6554 11.5663 36.2483 12.4446C36.1864 12.574 36.1245 12.7035 36.0607 12.8368C35.739 13.5279 35.739 13.5279 35.6562 14.2733C35.8421 14.7255 36.0619 15.1478 36.2959 15.5772C36.7141 16.3811 37.0379 17.1839 37.2957 18.0528C37.3253 18.15 37.3549 18.2473 37.3854 18.3475C37.9355 20.2994 38.02 22.3657 38.1633 24.3786C38.1833 24.6527 38.2034 24.9268 38.2235 25.2009C38.2651 25.7711 38.3063 26.3414 38.3471 26.9117C38.3992 27.6401 38.4524 28.3684 38.5059 29.0968C38.5473 29.6611 38.5882 30.2254 38.629 30.7898C38.6485 31.0584 38.668 31.3269 38.6877 31.5955C38.7151 31.9708 38.7419 32.3461 38.7686 32.7214C38.7767 32.8305 38.7847 32.9396 38.793 33.052C38.9336 35.0625 38.9336 35.0625 38.543 35.6485C36.7408 35.7931 34.6198 35.2749 33.2109 34.125C32.859 33.7731 32.5071 33.4212 32.1445 33.0586C32.0943 34.4663 32.044 35.8739 31.9922 37.3242C33.1111 37.3062 33.1111 37.3062 34.2298 37.2831C34.3702 37.2819 34.5106 37.2808 34.6552 37.2796C34.798 37.2772 34.9408 37.2748 35.088 37.2724C35.5811 37.335 35.8648 37.4799 36.2578 37.7813C36.3245 38.2478 36.3245 38.2478 36.2578 38.6953C35.8436 39.1096 35.6219 39.0386 35.0423 39.0394C34.8512 39.0404 34.66 39.0414 34.4631 39.0424C34.2536 39.0418 34.0441 39.0412 33.8346 39.0405C33.6206 39.0407 33.4066 39.041 33.1925 39.0414C32.7438 39.0418 32.2951 39.0412 31.8463 39.0397C31.2705 39.038 30.6947 39.039 30.1188 39.0408C29.6768 39.0419 29.2349 39.0416 28.7929 39.0408C28.5805 39.0406 28.3682 39.0408 28.1558 39.0415C27.8593 39.0423 27.5628 39.0409 27.2663 39.0394C27.0974 39.0392 26.9284 39.039 26.7544 39.0387C26.3555 39 26.3555 39 26.0508 38.6953C25.9841 38.2478 25.9841 38.2478 26.0508 37.7813C26.5888 37.3688 26.9833 37.2684 27.6534 37.2796C27.7937 37.2808 27.9341 37.2819 28.0787 37.2831C28.2547 37.2872 28.4307 37.2914 28.6121 37.2957C29.1745 37.3051 29.7369 37.3145 30.3164 37.3242C30.3164 35.4641 30.3164 33.604 30.3164 31.6875C29.8691 31.6818 29.4217 31.6761 28.9608 31.6703C28.5287 31.6632 28.0966 31.6554 27.6645 31.6475C27.3637 31.6425 27.0628 31.6382 26.7619 31.6347C26.33 31.6297 25.8982 31.6217 25.4664 31.6131C25.2638 31.6117 25.2638 31.6117 25.0571 31.6102C24.8696 31.6057 24.8696 31.6057 24.6783 31.6011C24.5128 31.5985 24.5128 31.5985 24.3441 31.5959C24.0703 31.5352 24.0703 31.5352 23.7656 31.0782C23.7609 30.6337 23.7749 30.2083 23.8055 29.766C23.8136 29.6321 23.8216 29.4982 23.8299 29.3602C23.8573 28.9171 23.8874 28.4742 23.918 28.0313C23.928 27.8801 23.938 27.729 23.9483 27.5733C24.0121 26.6115 24.082 25.6503 24.1563 24.6893C24.1816 24.3584 24.2059 24.0275 24.2294 23.6965C24.6616 17.6109 24.6616 17.6109 26.1629 15.4659C26.6223 14.7485 26.8699 14.2877 26.6893 13.4315C26.4436 12.7689 26.1201 12.1468 25.7937 11.521C25.6878 11.3055 25.5826 11.0897 25.478 10.8736C25.1694 10.2408 24.8493 9.61437 24.5273 8.98831C24.3254 8.59327 24.1247 8.19762 23.9245 7.80169C23.8387 7.63366 23.753 7.46564 23.6646 7.29252C23.2311 6.36219 23.2106 5.43318 23.3086 4.41799C23.6407 3.72923 24.0446 3.31158 24.6797 2.89456C25.2893 2.68925 25.91 2.54414 26.5364 2.39944C26.7048 2.35859 26.8732 2.31775 27.0467 2.27566C28.2778 1.98049 28.2778 1.98049 28.6406 1.98049C28.6371 1.87582 28.6336 1.77115 28.6299 1.66331C28.6272 1.52604 28.6244 1.38877 28.6216 1.24734C28.618 1.11125 28.6145 0.975156 28.6109 0.834941C28.6406 0.457057 28.6406 0.457057 28.9453 2.54996e-05Z" fill="#072A75"/>
<path d="M10.9592 9.05975C11.1583 9.05897 11.3575 9.05818 11.5626 9.05737C11.6653 9.05865 11.768 9.05993 11.8737 9.06124C12.1868 9.06451 12.4993 9.06127 12.8123 9.05737C13.111 9.05855 13.111 9.05855 13.4158 9.05975C13.6871 9.06078 13.6871 9.06078 13.9638 9.06184C14.7833 9.18883 15.2471 9.56514 15.739 10.2166C16.0678 10.789 16.1674 11.1864 16.1579 11.8353C16.1566 11.9584 16.1552 12.0815 16.1538 12.2084C16.152 12.3021 16.1502 12.3957 16.1484 12.4922C16.3523 12.4816 16.3523 12.4816 16.5602 12.4708C16.7385 12.4653 16.9169 12.4598 17.1006 12.4542C17.3657 12.4436 17.3657 12.4436 17.6362 12.4327C18.1289 12.4922 18.1289 12.4922 18.4865 12.7624C19.065 13.5418 19.0504 14.5118 19.0971 15.4528C19.187 16.7764 19.4895 18.0267 19.8053 19.3117C20.0691 20.4522 20.124 21.3912 19.957 22.5469C19.9055 23.0033 19.9055 23.0033 20.1818 23.2487C20.5428 23.8155 20.4777 24.3708 20.4732 25.0294C20.474 25.1726 20.4748 25.3158 20.4756 25.4634C20.4776 25.937 20.4763 26.4104 20.4748 26.884C20.4751 27.213 20.4755 27.5419 20.4761 27.8709C20.4768 28.5604 20.4758 29.2499 20.4736 29.9394C20.471 30.8236 20.4725 31.7078 20.4753 32.592C20.4769 33.2714 20.4764 33.9507 20.4752 34.63C20.4749 34.9561 20.4753 35.2821 20.4763 35.6082C20.4775 36.0637 20.4757 36.5191 20.4732 36.9747C20.4741 37.1097 20.475 37.2447 20.476 37.3838C20.4707 37.8903 20.4465 38.3014 20.2731 38.7792C19.7314 39.1577 19.1408 39.0818 18.4975 39.0741C18.3479 39.0747 18.1982 39.0752 18.044 39.0758C17.5484 39.077 17.0529 39.0737 16.5573 39.0703C16.2137 39.0699 15.8701 39.0698 15.5265 39.0699C14.8061 39.0694 14.0857 39.0669 13.3654 39.0628C12.4403 39.0576 11.5153 39.0564 10.5902 39.0567C9.88068 39.0566 9.17118 39.0549 8.46167 39.0527C8.12048 39.0517 7.77929 39.0511 7.43811 39.0509C6.96208 39.0502 6.48611 39.0476 6.01009 39.0443C5.86803 39.0445 5.72597 39.0446 5.5796 39.0447C5.45037 39.0434 5.32115 39.0421 5.18801 39.0408C5.07542 39.0403 4.96282 39.0398 4.84682 39.0393C4.5703 39.0001 4.5703 39.0001 4.26562 38.6954C4.22727 38.4193 4.22727 38.4193 4.22693 38.0787C4.22607 37.9497 4.22521 37.8207 4.22432 37.6878C4.22494 37.5459 4.22556 37.4041 4.22619 37.258C4.22566 37.1089 4.22512 36.9597 4.22457 36.8061C4.22323 36.3111 4.22412 35.8162 4.22515 35.3212C4.22494 34.9781 4.22465 34.635 4.22427 34.292C4.22382 33.572 4.22447 32.852 4.22589 32.1319C4.22763 31.2084 4.22663 30.285 4.22481 29.3615C4.2237 28.6526 4.22405 27.9437 4.22484 27.2349C4.22505 26.8944 4.2248 26.5538 4.22409 26.2133C4.22332 25.7374 4.22449 25.2614 4.22619 24.7855C4.22557 24.6442 4.22496 24.503 4.22432 24.3575C4.22518 24.2277 4.22604 24.0978 4.22693 23.964C4.22704 23.8515 4.22716 23.739 4.22727 23.6231C4.26562 23.3087 4.26562 23.3087 4.4299 22.982C4.47623 22.8887 4.52257 22.7954 4.5703 22.6993C4.52003 22.5987 4.46976 22.4982 4.41796 22.3946C4.24891 20.8804 4.55367 19.514 4.89731 18.0495C5.12807 17.0509 5.25152 16.121 5.29632 15.097C5.35553 14.3144 5.50159 13.5291 5.78905 12.7969C6.35833 12.4174 6.6642 12.4608 7.34106 12.4732C7.53488 12.476 7.72871 12.4787 7.92841 12.4815C8.07707 12.4851 8.22573 12.4886 8.3789 12.4922C8.37183 12.3709 8.36476 12.2495 8.35747 12.1245C8.31259 10.8069 8.31259 10.8069 8.62646 10.1309C9.34292 9.37675 9.91413 9.06372 10.9592 9.05975ZM10.0547 11.1212C10.0547 11.5736 10.0547 12.0261 10.0547 12.4922C11.5126 12.4922 12.9705 12.4922 14.4726 12.4922C14.5497 11.5182 14.5497 11.5182 14.2962 11.0589C13.9145 10.7291 13.6823 10.742 13.1819 10.7462C13.0198 10.7468 12.8577 10.7474 12.6906 10.748C12.5215 10.7518 12.3523 10.7555 12.178 10.7593C12.0082 10.7595 11.8384 10.7597 11.6635 10.7599C10.7727 10.7085 10.7727 10.7085 10.0547 11.1212Z" fill="#052A75"/>
<path d="M5.78906 24.5273C10.0623 24.5273 14.3355 24.5273 18.7383 24.5273C18.7383 28.8006 18.7383 33.0738 18.7383 37.4766C14.465 37.4766 10.1918 37.4766 5.78906 37.4766C5.78906 33.2033 5.78906 28.9301 5.78906 24.5273Z" fill="#FB8E01"/>
<path d="M28.1836 14.9297C30.1443 14.9297 32.1049 14.9297 34.125 14.9297C36.2371 19.1538 36.5188 23.004 36.7601 27.6265C36.837 29.0932 36.9397 30.5548 37.0791 32.0171C37.1364 32.6208 37.1894 33.213 37.1719 33.8203C35.3846 33.6879 34.4001 33.0916 33.1969 31.8092C32.0372 30.6025 30.7159 30.163 29.0715 30.1159C28.9155 30.1111 28.9155 30.1111 28.7564 30.1063C28.4259 30.0963 28.0953 30.0873 27.7647 30.0784C27.5399 30.0718 27.3152 30.0651 27.0904 30.0584C26.5408 30.0422 25.9911 30.0267 25.4414 30.0117C25.4292 29.1209 25.4669 28.2671 25.5747 27.3838C25.7455 25.8969 25.8436 24.4069 25.9311 22.913C26.119 19.9195 26.8152 17.6665 28.1836 14.9297Z" fill="#D94A85"/>
<path d="M8.07422 24.5273C11.5934 24.5273 15.1125 24.5273 18.7383 24.5273C18.7383 27.7951 18.7383 31.0629 18.7383 34.4297C17.6993 34.3258 16.9375 34.2449 16.0056 33.8774C15.9011 33.837 15.7966 33.7965 15.6889 33.7547C14.7492 33.3766 13.918 32.8981 13.1016 32.2969C12.9625 32.1951 12.8235 32.0934 12.6802 31.9886C10.2421 30.1021 8.81344 27.6414 8.07422 24.6797C8.07422 24.6294 8.07422 24.5791 8.07422 24.5273Z" fill="#FCCA4F"/>
<path d="M33.9727 6.09375C34.3894 6.30212 34.431 6.53853 34.6201 6.96021C34.8754 7.4967 35.1089 7.87948 35.5532 8.27417C35.6852 8.40928 35.8172 8.54439 35.9531 8.68359C35.9056 9.28523 35.6671 9.79984 35.4247 10.3475C35.3503 10.5162 35.2758 10.6849 35.1991 10.8587C35.1212 11.0332 35.0432 11.2078 34.9629 11.3877C34.8459 11.6531 34.8459 11.6531 34.7266 11.9239C34.1467 13.2322 34.1467 13.2322 33.9727 13.4062C33.5554 13.4197 33.142 13.4238 32.7247 13.4211C32.5998 13.4209 32.475 13.4207 32.3463 13.4205C31.9458 13.4196 31.5453 13.4177 31.1448 13.4158C30.8739 13.415 30.603 13.4143 30.3322 13.4137C29.6668 13.412 29.0014 13.4094 28.3359 13.4062C28.0314 12.7613 27.7277 12.116 27.4247 11.4703C27.3215 11.2507 27.218 11.0311 27.1144 10.8116C26.9656 10.4965 26.8176 10.181 26.6697 9.86545C26.623 9.76705 26.5764 9.66865 26.5283 9.56727C26.2031 8.87063 26.2031 8.87063 26.2031 8.53125C27.5578 7.4285 28.9083 7.01971 30.6368 6.97888C31.78 6.94689 32.6463 6.80449 33.6674 6.24014C33.7681 6.19183 33.8689 6.14352 33.9727 6.09375Z" fill="#FA7C9F"/>
<path d="M6.55079 18.2812C6.62934 18.3221 6.70789 18.3629 6.78882 18.405C6.91136 18.4647 7.03391 18.5244 7.16016 18.5859C7.31432 18.6655 7.46848 18.745 7.62731 18.827C8.35877 19.1373 9.10852 19.1289 9.89283 19.1477C10.0406 19.1529 10.1884 19.1581 10.3406 19.1635C10.7023 19.1759 11.064 19.1865 11.4258 19.1953C11.5263 19.5472 11.6269 19.8991 11.7305 20.2617C12.2593 20.3759 12.2593 20.3759 12.7969 20.4141C12.8472 20.0119 12.8974 19.6097 12.9492 19.1953C13.0374 19.1947 13.1255 19.1941 13.2163 19.1934C15.6297 19.1873 15.6297 19.1873 17.8242 18.2812C18.5846 21.1236 18.5846 21.1236 18.2813 22.2422C17.9391 22.6984 17.7559 22.8236 17.2148 23.0039C16.8904 23.0213 16.5654 23.0297 16.2405 23.0333C16.0933 23.0352 16.0933 23.0352 15.9431 23.0371C15.6186 23.0408 15.2941 23.0434 14.9696 23.0456C14.803 23.0468 14.803 23.0468 14.633 23.048C14.0453 23.0521 13.4575 23.055 12.8697 23.0572C12.3839 23.0593 11.8983 23.0635 11.4126 23.0697C10.8253 23.0773 10.2381 23.081 9.65077 23.0821C9.42744 23.0831 9.2041 23.0854 8.98079 23.0891C7.01486 23.1194 7.01486 23.1194 6.41618 22.6371C5.89796 22.0024 5.88449 21.5171 5.94141 20.7188C6.01868 20.2798 6.12835 19.8535 6.2461 19.4238C6.27516 19.3131 6.30423 19.2023 6.33417 19.0882C6.40505 18.8189 6.47773 18.55 6.55079 18.2812Z" fill="#6763F6"/>
<path d="M7.16017 14.168C10.5285 14.168 13.8968 14.168 17.3672 14.168C17.6011 15.1036 17.6826 15.8034 17.2053 16.6531C16.8475 17.2471 16.3391 17.4814 15.6914 17.6719C15.1466 17.7376 14.6068 17.7396 14.0585 17.7379C13.9036 17.7387 13.7487 17.7395 13.5891 17.7404C13.2629 17.7413 12.9366 17.7411 12.6104 17.7398C12.1129 17.7385 11.6156 17.7429 11.1181 17.7477C10.8002 17.748 10.4822 17.7479 10.1642 17.7475C10.0164 17.7492 9.86866 17.7509 9.71641 17.7526C8.78211 17.7431 8.23041 17.6067 7.46486 17.0625C6.8956 16.4565 6.96392 15.798 6.97688 15.0094C7.00782 14.625 7.00782 14.625 7.16017 14.168Z" fill="#B998F2"/>
<path d="M30.6211 14.9297C31.7774 14.9297 32.9337 14.9297 34.125 14.9297C35.9385 18.3722 36.4927 21.4107 36.4102 25.2891C36.156 25.0354 35.9022 24.7814 35.6484 24.5273C35.5571 24.4374 35.4658 24.3475 35.3717 24.2548C33.364 22.1437 30.6211 17.9857 30.6211 14.9297Z" fill="#FA7C9F"/>
<path d="M3.65089 4.15674C4.28788 4.30676 4.54117 4.67648 4.91308 5.1797C5.54257 5.98409 6.17757 6.60657 7.02328 7.1935C7.38185 7.52994 7.44207 7.73988 7.46484 8.22658C7.22123 8.52899 6.99811 8.74032 6.70312 8.9883C5.60031 9.92974 5.60031 9.92974 4.68456 11.0449C4.38618 11.4644 4.29166 11.567 3.79906 11.7781C3.15824 11.7099 3.00115 11.4603 2.58984 10.9688C1.8009 10.041 1.01777 9.20978 -7.62939e-06 8.53127C-0.0749893 8.01889 -0.0749893 8.01889 -7.62939e-06 7.46486C0.313011 7.12506 0.313011 7.12506 0.742668 6.82692C1.6085 6.18284 2.19809 5.48433 2.83561 4.61734C3.19921 4.26564 3.19921 4.26564 3.65089 4.15674ZM3.65624 6.5508C3.20378 7.00326 2.75132 7.45572 2.28515 7.92189C2.4234 8.09156 2.56165 8.26124 2.70409 8.43605C2.78186 8.53149 2.85963 8.62693 2.93975 8.72527C3.2117 9.00096 3.45507 9.14082 3.80859 9.29298C4.01262 9.09715 4.21554 8.90015 4.41796 8.70265C4.58763 8.53828 4.58763 8.53828 4.76073 8.37059C5.0613 8.10292 5.0613 8.10292 5.02734 7.76955C4.80037 7.53946 4.80037 7.53946 4.51318 7.31252C4.21357 7.06593 3.93096 6.82551 3.65624 6.5508Z" fill="#FDCB4F"/>
<path d="M17.4053 -0.123779C18.1671 0.0412848 18.3409 0.378664 18.7758 0.997375C19.2884 1.71439 19.8718 2.29234 20.6235 2.75171C21.0234 3.04688 21.0234 3.04688 21.2043 3.49438C21.1758 3.96094 21.1758 3.96094 20.8997 4.31323C20.74 4.45234 20.5777 4.58831 20.4141 4.72266C19.3109 5.6638 19.3109 5.6638 18.3955 6.7793C18.1065 7.18076 17.9849 7.30822 17.5291 7.54102C16.7652 7.41631 16.4437 6.84183 15.9961 6.24609C15.4145 5.49153 14.8006 4.98582 14.0174 4.43701C13.7109 4.11328 13.7109 4.11328 13.6181 3.65982C13.7427 3.04146 13.9767 2.89872 14.4822 2.53271C15.3474 1.87239 16.0656 1.17837 16.6793 0.277313C16.9102 0 16.9102 0 17.4053 -0.123779ZM17.3672 2.28516C16.9147 2.73762 16.4623 3.19008 15.9961 3.65625C16.1124 3.76937 16.2286 3.88248 16.3484 3.99902C16.6724 4.33057 16.9492 4.64979 17.2148 5.02734C17.8688 4.77584 18.2629 4.30561 18.7383 3.80859C18.5278 3.3195 18.2928 3.03935 17.8813 2.7041C17.6268 2.49672 17.6268 2.49672 17.3672 2.28516Z" fill="#FDCB4F"/>
<path d="M30.3164 1.52344C30.8694 1.52344 31.4224 1.52344 31.9922 1.52344C32.017 1.86562 32.0418 2.20779 32.0666 2.54997C32.16 2.963 32.2642 3.10009 32.6016 3.35156C32.9113 3.47011 32.9113 3.47011 33.2395 3.53247C33.4312 3.57332 33.6228 3.61417 33.8203 3.65625C33.557 4.49538 33.2767 4.87852 32.5215 5.32567C31.8021 5.62854 31.0492 5.61216 30.2783 5.63672C28.7058 5.72363 27.3541 5.82861 26.1103 6.88998C25.93 7.02372 25.93 7.02372 25.7461 7.16016C25.2891 7.00781 25.2891 7.00781 25.1444 6.75847C24.9132 6.11621 24.7355 5.56699 24.832 4.875C25.2104 4.32816 25.7812 4.25815 26.3935 4.1228C26.612 4.07117 26.8304 4.01939 27.0487 3.96748C27.1604 3.94144 27.2721 3.91539 27.3871 3.88856C27.9305 3.76055 28.4715 3.62446 29.012 3.48486C29.2003 3.43734 29.3886 3.38982 29.5826 3.34085C29.795 3.27074 29.795 3.27074 30.0117 3.19922C30.1866 2.84939 30.2109 2.57812 30.2497 2.18994C30.2717 1.97 30.2937 1.75005 30.3164 1.52344Z" fill="#F2AD73"/>
<path d="M29.707 7.16016C29.7155 7.31148 29.7239 7.46281 29.7326 7.61872C29.7642 8.18403 29.7964 8.74931 29.8288 9.31458C29.8427 9.55851 29.8565 9.80245 29.87 10.0464C29.8897 10.3985 29.9099 10.7506 29.9302 11.1027C29.9361 11.2104 29.9419 11.3182 29.948 11.4293C29.9872 12.0964 30.0612 12.7468 30.1641 13.4063C29.5608 13.4063 28.9575 13.4063 28.3359 13.4063C28.0314 12.7613 27.7277 12.116 27.4247 11.4703C27.3215 11.2507 27.218 11.0311 27.1144 10.8116C26.9656 10.4965 26.8176 10.181 26.6697 9.86545C26.623 9.76706 26.5764 9.66866 26.5283 9.56728C26.2031 8.87064 26.2031 8.87064 26.2031 8.53125C27.2837 7.65158 28.3052 7.13019 29.707 7.16016Z" fill="#D84A85"/>
<path d="M35.3438 4.11328C36.686 4.16451 36.686 4.16451 37.2766 4.49414C37.5911 5.09316 37.4753 5.60301 37.3242 6.24609C37.1914 6.66476 37.037 7.05883 36.8672 7.46484C36.076 6.86704 35.5806 6.38877 35.4354 5.35822C35.396 4.94324 35.3652 4.52954 35.3438 4.11328Z" fill="#ECA973"/>
</g>
<defs>
<clipPath id="clip0_27_2368">
<rect width="39" height="39" fill="white"/>
</clipPath>
</defs>
</svg>
