<svg width="39" height="39" viewBox="0 0 39 39" fill="none" xmlns="http://www.w3.org/2000/svg">
<path d="M35.1979 5.52367C36.9096 6.99218 38.1981 8.93031 38.4311 11.2136C38.5769 13.5278 38.3193 15.548 37.0195 17.5195C36.9465 17.6319 36.8734 17.7442 36.7981 17.8599C35.3065 19.9598 33.0647 20.9559 30.6211 21.4805C30.5924 21.606 30.5924 21.606 30.5632 21.7341C30.4743 22.1168 30.3811 22.4984 30.2878 22.8801C30.2579 23.0118 30.2279 23.1435 30.1971 23.2792C29.9925 24.1006 29.7837 24.5907 29.0976 25.1367C28.7434 25.3139 28.5524 25.3042 28.1586 25.2968C28.0256 25.2948 27.8926 25.2927 27.7556 25.2906C27.6093 25.2877 27.463 25.2847 27.3123 25.2817C26.9932 25.2767 26.6741 25.2718 26.355 25.267C26.185 25.2644 26.0151 25.2617 25.84 25.2589C24.75 25.2438 23.6599 25.2401 22.5698 25.2349C21.6129 25.2297 20.6563 25.2201 19.6995 25.2008C18.7735 25.1824 17.848 25.176 16.9218 25.1777C16.5703 25.1762 16.2188 25.1704 15.8674 25.1601C13.742 25.0665 13.742 25.0665 11.9098 25.9966C11.3277 26.5775 10.8336 27.2089 10.3594 27.8789C10.3091 27.9292 10.2588 27.9795 10.207 28.0313C10.3978 28.0322 10.5885 28.0331 10.785 28.034C12.5828 28.0427 14.3805 28.0538 16.1782 28.0672C17.1024 28.074 18.0266 28.08 18.9509 28.084C19.8428 28.088 20.7348 28.0942 21.6268 28.1018C21.967 28.1044 22.3073 28.1061 22.6475 28.1071C23.1242 28.1085 23.6008 28.1128 24.0775 28.1177C24.2181 28.1175 24.3587 28.1173 24.5035 28.1171C25.2829 28.1285 25.8365 28.1999 26.5078 28.6406C26.8753 29.1505 27.0047 29.5544 26.9743 30.1736C26.8725 30.699 26.6933 31.0791 26.2483 31.4084C25.4288 31.7053 24.4725 31.5844 23.6133 31.5352C23.6875 31.6734 23.7617 31.8117 23.8382 31.9541C24.1272 32.5706 24.1675 33.0025 24.0703 33.668C23.8087 34.384 23.4813 34.7663 22.8515 35.1914C22.1347 35.4304 21.5526 35.4274 20.8425 35.1629C20.291 34.8074 19.9452 34.406 19.6523 33.8203C19.6338 33.5733 19.6256 33.3254 19.6238 33.0777C19.6216 32.9461 19.6194 32.8145 19.6172 32.6789C19.6523 32.2969 19.6523 32.2969 19.957 31.6875C18.2477 31.6875 16.5384 31.6875 14.7773 31.6875C14.8779 31.8886 14.9784 32.0897 15.082 32.2969C15.1924 32.9898 15.2395 33.6756 14.9041 34.3083C14.3226 35.0198 13.8075 35.2992 12.8921 35.4009C12.0873 35.3176 11.5424 35.0302 10.9878 34.4202C10.6296 33.8034 10.5566 33.1474 10.664 32.4492C10.8949 32.0291 10.8949 32.0291 11.1211 31.6875C10.9447 31.6818 10.7684 31.6761 10.5867 31.6703C10.3522 31.6603 10.1177 31.6501 9.88329 31.6399C9.76742 31.6365 9.65156 31.633 9.53218 31.6295C8.63974 31.5872 7.99515 31.41 7.30534 30.8044C6.54114 29.928 6.19953 29.2256 6.2556 28.0408C6.34705 26.7047 7.40936 25.7416 8.32176 24.8701C8.52403 24.6745 8.72598 24.4785 8.92757 24.2822C9.01606 24.1974 9.10455 24.1126 9.19573 24.0253C9.27809 23.9396 9.36044 23.8539 9.4453 23.7656C9.53453 23.6796 9.62376 23.5935 9.71569 23.5048C10.1539 22.6865 9.63411 21.3961 9.41104 20.5338C9.37684 20.3991 9.34265 20.2645 9.30741 20.1257C9.23359 19.8355 9.15944 19.5453 9.08497 19.2552C8.96718 18.7963 8.85028 18.3372 8.73361 17.878C8.5281 17.0699 8.3218 16.2619 8.11525 15.454C7.78398 14.1583 7.45334 12.8624 7.12377 11.5662C7.00845 11.1135 6.89244 10.661 6.7764 10.2084C6.706 9.93209 6.63564 9.65574 6.56531 9.37939C6.51652 9.19027 6.51652 9.19027 6.46675 8.99734C6.34738 8.52611 6.24608 8.10542 6.24608 7.6172C6.107 7.6204 5.96793 7.62359 5.82464 7.62688C5.30647 7.63729 4.78842 7.64491 4.27019 7.65068C4.04631 7.65374 3.82245 7.65789 3.59862 7.66318C3.27602 7.6706 2.95357 7.67403 2.63089 7.67671C2.43703 7.67991 2.24316 7.6831 2.04342 7.68638C1.43547 7.6055 1.19144 7.43602 0.761704 7.00783C0.478762 6.44194 0.520238 5.79581 0.609361 5.1797C0.943028 4.74945 1.19286 4.50709 1.67577 4.26564C2.14267 4.24492 2.60593 4.23322 3.07304 4.22934C3.21247 4.22811 3.35189 4.22688 3.49553 4.22562C3.7911 4.22351 4.08667 4.22187 4.38225 4.22068C4.833 4.21806 5.28359 4.21137 5.7343 4.20465C6.02153 4.2031 6.30876 4.2018 6.59599 4.20078C6.73028 4.19811 6.86456 4.19544 7.00292 4.19269C7.84 4.19563 8.32881 4.30806 8.98827 4.87502C9.1787 5.24457 9.1787 5.24457 9.29295 5.68434C9.3393 5.85598 9.38564 6.02762 9.4334 6.20445C9.45843 6.30407 9.48347 6.40368 9.50927 6.50632C9.61482 6.92336 9.72644 7.33862 9.83806 7.75408C10.0049 8.37985 10.1708 9.00583 10.3332 9.63278C10.3676 9.76538 10.402 9.89797 10.4375 10.0346C10.5117 10.3594 10.5117 10.3594 10.5117 10.6641C13.9806 10.6641 17.4494 10.6641 21.0234 10.6641C21.124 10.2116 21.2245 9.75916 21.3281 9.29299C22.1515 7.02951 23.845 5.42714 25.9788 4.38169C29.0498 3.04752 32.5216 3.53789 35.1979 5.52367ZM11.4258 14.168C11.6188 15.2299 11.8188 16.261 12.0881 17.3017C12.1211 17.4309 12.1541 17.56 12.1882 17.6931C12.2571 17.9622 12.3264 18.2313 12.396 18.5003C12.5028 18.9138 12.6084 19.3277 12.7138 19.7416C12.7813 20.0043 12.8489 20.2669 12.9165 20.5295C12.9481 20.6534 12.9796 20.7774 13.0122 20.905C13.1192 21.4668 13.1192 21.4668 13.4062 21.9375C13.8281 21.952 14.2462 21.9566 14.6682 21.9548C14.8004 21.9548 14.9327 21.9549 15.069 21.9549C15.5083 21.9548 15.9477 21.9536 16.3871 21.9524C16.6908 21.9521 16.9946 21.9519 17.2984 21.9517C18.0996 21.9512 18.9007 21.9497 19.7019 21.948C20.5188 21.9464 21.3357 21.9457 22.1526 21.945C23.7567 21.9433 25.3608 21.9407 26.9648 21.9375C27.0151 21.6359 27.0654 21.3342 27.1172 21.0235C26.9571 20.9478 26.7971 20.8722 26.6322 20.7943C24.0843 19.5711 22.3208 18.1454 21.3281 15.3867C21.2276 14.9845 21.127 14.5824 21.0234 14.168C17.8562 14.168 14.689 14.168 11.4258 14.168Z" fill="#040306"/>
<path d="M2.44613 4.98303C2.56967 4.98109 2.69321 4.97915 2.8205 4.97714C2.95333 4.97681 3.08616 4.97647 3.22302 4.97612C3.35993 4.9751 3.49684 4.97409 3.6379 4.97304C3.9273 4.9715 4.21671 4.97079 4.50612 4.97084C4.94953 4.97017 5.39271 4.96463 5.83607 4.95886C6.11716 4.95797 6.39824 4.95736 6.67932 4.95707C6.81215 4.95488 6.94499 4.9527 7.08185 4.95044C7.9858 4.9573 7.9858 4.9573 8.36872 5.26042C8.59252 5.77849 8.73849 6.30498 8.87045 6.85185C8.89988 6.96861 8.9293 7.08538 8.95962 7.20568C9.05303 7.57738 9.14451 7.94952 9.23584 8.32173C9.32863 8.69493 9.42181 9.06802 9.51532 9.44104C9.57331 9.67285 9.6308 9.90479 9.68776 10.1369C9.82872 10.72 9.82872 10.72 10.0547 11.2734C15.4088 11.3488 15.4088 11.3488 20.8711 11.4257C20.8711 12.0793 20.8711 12.7328 20.8711 13.4062C17.5028 13.4565 14.1345 13.5067 10.6641 13.5585C10.8987 14.7486 10.8987 14.7486 11.1712 15.9262C11.2268 16.1486 11.2268 16.1486 11.2835 16.3755C11.3404 16.6007 11.3404 16.6007 11.3984 16.8304C11.434 16.9726 11.4697 17.1148 11.5064 17.2613C11.6378 17.7855 11.7699 18.3094 11.9019 18.8334C12.1972 20.0086 12.4926 21.1837 12.7969 22.3945C17.6231 22.3945 22.4494 22.3945 27.4219 22.3945C27.5727 21.9923 27.7235 21.5901 27.8789 21.1757C28.5325 21.226 29.186 21.2763 29.8594 21.3281C29.7692 21.7475 29.6769 22.1663 29.5833 22.5849C29.558 22.7033 29.5328 22.8217 29.5068 22.9438C29.4808 23.0586 29.4547 23.1735 29.4279 23.2919C29.4048 23.3972 29.3817 23.5025 29.3578 23.611C29.2239 23.9921 29.0664 24.2288 28.793 24.5273C28.4692 24.6036 28.4692 24.6036 28.0875 24.6037C27.9427 24.6051 27.7979 24.6066 27.6487 24.6082C27.4901 24.6067 27.3315 24.6052 27.1681 24.6037C27.0008 24.6045 26.8336 24.6054 26.6613 24.6062C26.107 24.6081 25.5529 24.6056 24.9987 24.6029C24.6144 24.6029 24.2302 24.6031 23.846 24.6035C23.0402 24.6038 22.2344 24.6019 21.4286 24.5984C20.4969 24.5943 19.5652 24.594 18.6334 24.5958C17.7372 24.5975 16.8411 24.5965 15.945 24.5944C15.5635 24.5937 15.1821 24.5936 14.8006 24.5942C14.268 24.5947 13.7356 24.5922 13.203 24.5889C12.9651 24.5899 12.9651 24.5899 12.7224 24.5909C12.5776 24.5894 12.4328 24.5879 12.2836 24.5864C12.1576 24.586 12.0317 24.5856 11.9019 24.5852C11.4961 24.5126 11.3682 24.3957 11.1211 24.0703C10.9837 23.6708 10.8684 23.2842 10.7639 22.8762C10.7316 22.7552 10.6994 22.6342 10.6661 22.5095C10.562 22.1162 10.4604 21.7222 10.3594 21.3281C10.3261 21.1995 10.2929 21.0709 10.2587 20.9385C10.0474 20.1198 9.84018 19.3002 9.63459 18.48C9.5209 18.0266 9.40678 17.5732 9.29255 17.1199C9.00983 15.9975 8.72781 14.8749 8.44581 13.7524C8.20548 12.7958 7.96488 11.8394 7.72388 10.883C7.61144 10.4363 7.49942 9.98947 7.38742 9.54265C7.31907 9.27126 7.25071 8.99986 7.18232 8.72847C7.1513 8.60425 7.12028 8.48002 7.08832 8.35202C6.93918 7.74078 6.93918 7.74078 6.70312 7.16011C6.56405 7.15948 6.42498 7.15886 6.28169 7.15821C5.76342 7.15409 5.24542 7.1466 4.72723 7.13686C4.50339 7.13334 4.27953 7.13114 4.05567 7.13032C3.73293 7.12889 3.41059 7.12264 3.08794 7.11548C2.89407 7.11308 2.70021 7.11069 2.50047 7.10822C1.85081 6.98271 1.6183 6.76461 1.21875 6.24604C1.21875 5.76045 1.21875 5.76045 1.37109 5.33198C1.83301 5.02404 1.92714 4.98859 2.44613 4.98303Z" fill="#7360EE"/>
<path d="M10.5117 23.918C10.5777 24.0342 10.6437 24.1505 10.7117 24.2703C10.9993 24.7283 11.2554 24.8927 11.7305 25.1367C11.5256 25.5973 11.3018 25.9015 10.9348 26.2454C10.8403 26.3362 10.7457 26.427 10.6483 26.5206C10.4493 26.7089 10.2498 26.8965 10.0496 27.0836C9.48243 27.6243 9.48243 27.6243 9.14122 28.3175C9.14102 28.4241 9.14083 28.5308 9.14062 28.6406C9.37748 28.8775 9.60322 28.8129 9.93284 28.814C10.1398 28.8152 10.1398 28.8152 10.351 28.8165C10.5036 28.8167 10.6561 28.8168 10.8134 28.817C11.053 28.8182 11.053 28.8182 11.2975 28.8193C11.6457 28.821 11.9939 28.8223 12.3422 28.8233C12.8927 28.8251 13.4431 28.8281 13.9936 28.8314C15.5592 28.8408 17.1248 28.849 18.6905 28.8541C19.6468 28.8573 20.6031 28.8627 21.5595 28.8695C21.9248 28.8716 22.2901 28.873 22.6554 28.8734C23.1657 28.8742 23.676 28.8777 24.1863 28.8819C24.4142 28.8812 24.4142 28.8812 24.6468 28.8805C24.7856 28.8822 24.9245 28.8839 25.0675 28.8856C25.2486 28.8864 25.2486 28.8864 25.4333 28.8871C25.8285 28.9607 25.9635 29.084 26.2031 29.4023C26.2804 29.9212 26.2778 30.1992 25.9935 30.6452C25.3672 31.0848 24.7533 31.0119 24.0056 31.007C23.844 31.0084 23.6824 31.0097 23.516 31.011C22.981 31.0145 22.4462 31.0134 21.9113 31.0121C21.5394 31.0129 21.1675 31.0138 20.7955 31.0149C20.0154 31.0165 19.2352 31.0158 18.455 31.0136C17.4564 31.011 16.4579 31.0145 15.4593 31.0199C14.6908 31.0233 13.9224 31.023 13.1539 31.0218C12.7858 31.0217 12.4177 31.0227 12.0496 31.0249C11.534 31.0276 11.0186 31.0254 10.5029 31.0219C10.3516 31.0237 10.2002 31.0255 10.0443 31.0273C9.05563 31.0139 8.37574 30.8158 7.61719 30.1641C7.03254 29.4818 6.93835 28.844 6.92688 27.9592C7.11575 27.0607 7.82477 26.3975 8.43604 25.7461C8.50986 25.6667 8.58369 25.5873 8.65975 25.5055C8.86999 25.2802 9.08145 25.0561 9.29297 24.832C9.39253 24.726 9.4921 24.6199 9.59468 24.5107C10.1662 23.918 10.1662 23.918 10.5117 23.918Z" fill="#5E48EA"/>
<path d="M26.6602 12.7969C28.5705 12.7969 30.4809 12.7969 32.4492 12.7969C32.4492 15.082 32.4492 15.082 32.1445 16.6055C30.4855 16.6055 28.8265 16.6055 27.1172 16.6055C26.6602 14.168 26.6602 14.168 26.6602 12.7969Z" fill="#E15BC6"/>
<path d="M27.596 8.51392C27.8079 8.51394 28.0199 8.51481 28.2318 8.51633C28.3432 8.51655 28.4545 8.51676 28.5693 8.51699C28.9263 8.51784 29.2833 8.51975 29.6404 8.52169C29.8819 8.52245 30.1234 8.52315 30.3649 8.52377C30.9581 8.52546 31.5513 8.52809 32.1445 8.53121C32.5104 9.83457 32.4492 10.7273 32.4492 12.1875C30.5891 12.1875 28.729 12.1875 26.8125 12.1875C26.8125 8.54222 26.8125 8.54222 27.596 8.51392Z" fill="#FB7FE2"/>
<path d="M21.4805 12.7969C23.0389 12.7969 24.5974 12.7969 26.2031 12.7969C26.3037 14.0537 26.4042 15.3105 26.5078 16.6055C25.2007 16.6055 23.8936 16.6055 22.5469 16.6055C21.8035 15.1188 21.4805 14.4056 21.4805 12.7969Z" fill="#AFAEF2"/>
<path d="M33.0586 12.7969C34.6171 12.7969 36.1755 12.7969 37.7812 12.7969C37.6095 14.686 37.6095 14.686 37.248 15.5581C37.1805 15.725 37.1129 15.892 37.0433 16.0639C36.8672 16.4531 36.8672 16.4531 36.7148 16.6055C36.4213 16.6188 36.1273 16.6218 35.8335 16.6203C35.6553 16.6199 35.4771 16.6194 35.2935 16.6189C35.012 16.6169 35.012 16.6169 34.7249 16.615C34.4425 16.614 34.4425 16.614 34.1545 16.6129C33.6876 16.6111 33.2208 16.6084 32.7539 16.6055C32.8545 15.3486 32.955 14.0918 33.0586 12.7969Z" fill="#AFAEF3"/>
<path d="M22.3945 8.53125C23.7519 8.53125 25.1093 8.53125 26.5078 8.53125C26.4073 9.73781 26.3067 10.9444 26.2031 12.1875C24.6446 12.1875 23.0862 12.1875 21.4805 12.1875C21.4805 11.3289 21.5142 10.8791 21.7661 10.1023C21.8191 9.93518 21.8722 9.76806 21.9268 9.59587C22.0898 9.14062 22.0898 9.14062 22.3945 8.53125Z" fill="#BEBBF3"/>
<path d="M32.7539 8.53125C34.061 8.53125 35.3681 8.53125 36.7148 8.53125C37.3931 9.88774 37.7812 10.7348 37.7812 12.1875C36.2228 12.1875 34.6643 12.1875 33.0586 12.1875C32.958 10.9809 32.8575 9.77437 32.7539 8.53125Z" fill="#BFBCF4"/>
<path d="M29.6118 4.29419C30.3042 4.44937 30.5459 4.68932 30.9799 5.23503C31.4499 5.98853 31.9922 7.01561 31.9922 7.92188C30.4337 7.92188 28.8752 7.92188 27.2695 7.92188C27.5757 6.54403 28.024 4.67644 29.6118 4.29419Z" fill="#E25BC6"/>
<path d="M27.2695 17.2148C28.828 17.2148 30.3865 17.2148 31.9922 17.2148C31.4738 18.9429 31.4738 18.9429 31.0876 19.5667C31.014 19.689 30.9404 19.8113 30.8645 19.9374C30.6068 20.2808 30.3786 20.4967 30.0117 20.7188C29.4889 20.7381 29.131 20.7025 28.7001 20.3867C27.962 19.622 27.2695 18.2892 27.2695 17.2148Z" fill="#F97EE0"/>
<path d="M28.0312 4.72273C27.9706 4.83879 27.9099 4.95485 27.8474 5.07443C27.7263 5.31038 27.7263 5.31038 27.6028 5.5511C27.5232 5.70486 27.4437 5.85863 27.3618 6.01705C27.0799 6.63222 26.8741 7.28001 26.6602 7.92195C25.4536 7.92195 24.247 7.92195 23.0039 7.92195C23.8233 6.28318 25.4297 5.2992 27.0987 4.6406C27.4637 4.56129 27.681 4.60359 28.0312 4.72273Z" fill="#AEAEF2"/>
<path d="M31.2305 4.57031C33.0907 4.90036 34.3069 5.69216 35.6484 7.00781C35.7635 7.11602 35.8786 7.22422 35.9972 7.33571C36.2578 7.61719 36.2578 7.61719 36.2578 7.92188C35.0512 7.92188 33.8447 7.92188 32.6016 7.92188C32.1731 6.74121 32.1731 6.74121 32.0411 6.3724C31.8305 5.80178 31.6164 5.35248 31.2305 4.875C31.2305 4.77445 31.2305 4.67391 31.2305 4.57031Z" fill="#AFAFF3"/>
<path d="M32.6016 17.2148C33.8081 17.2148 35.0147 17.2148 36.2578 17.2148C35.1385 18.8939 33.6452 20.0193 31.6494 20.4712C31.4609 20.5026 31.2724 20.534 31.0781 20.5664C31.1856 20.3567 31.1856 20.3567 31.2953 20.1427C31.3912 19.9539 31.487 19.765 31.5828 19.5762C31.6298 19.4847 31.6768 19.3931 31.7253 19.2989C32.0732 18.6104 32.3272 17.9465 32.6016 17.2148Z" fill="#BCB9F0"/>
<path d="M23.0039 17.2148C24.2105 17.2148 25.417 17.2148 26.6602 17.2148C27.0791 18.2908 27.0791 18.2908 27.2069 18.6229C27.4782 19.3099 27.8044 19.9324 28.1836 20.5664C26.2047 20.2366 24.6656 19.298 23.3086 17.8242C23.208 17.6231 23.1075 17.422 23.0039 17.2148Z" fill="#BDBAF1"/>
<path d="M22.3945 31.5352C22.814 31.8087 23.0841 32.0002 23.3086 32.4492C23.3971 33.5293 23.3971 33.5293 23.023 34.1155C22.5311 34.5929 22.1737 34.6418 21.4864 34.6368C20.9655 34.545 20.7291 34.2213 20.4141 33.8203C20.1929 33.3781 20.205 33.0933 20.2617 32.6016C20.8279 31.6868 21.3301 31.445 22.3945 31.5352Z" fill="#FAC22C"/>
<path d="M13.4062 31.5351C13.8597 31.8052 14.2332 32.1225 14.4727 32.6015C14.5357 33.3105 14.4438 33.7063 14.0156 34.2773C13.4542 34.6515 12.9919 34.6887 12.3398 34.582C11.9118 34.3087 11.6529 34.1221 11.4258 33.6679C11.3373 32.5878 11.3373 32.5878 11.7114 32.0016C12.2603 31.4689 12.6487 31.4593 13.4062 31.5351Z" fill="#FAC22C"/>
</svg>
