<svg width="39" height="39" viewBox="0 0 39 39" fill="none" xmlns="http://www.w3.org/2000/svg">
<g clip-path="url(#clip0_27_2352)">
<path d="M32.2017 0.238076C32.3281 0.239229 32.4546 0.240383 32.5848 0.241572C34.2013 0.284817 35.4474 0.837825 36.7149 1.82816C36.8087 1.90102 36.9026 1.97388 36.9993 2.04894C38.0194 2.94887 38.9068 4.57155 39.027 5.94505C39.0895 8.12444 38.8981 9.82493 37.4766 11.5782C37.3967 11.6413 37.3168 11.7045 37.2344 11.7696C36.9578 11.997 36.754 12.1887 36.5625 12.4922C36.5367 13.008 36.6714 13.4646 36.8101 13.9585C36.8753 14.2324 36.9394 14.5065 37.0023 14.781C37.033 14.9123 37.0637 15.0436 37.0953 15.1789C37.6165 17.6313 36.7234 20.3806 35.4771 22.4707C34.2161 24.3431 32.4664 25.8976 30.8687 27.479C30.4639 27.8797 30.0598 28.2808 29.6559 28.6823C29.5651 28.7718 29.4743 28.8614 29.3808 28.9536C28.8456 29.4857 28.3532 30.0339 27.8789 30.6211C28.7343 30.5461 29.5524 30.4101 30.3926 30.2308C31.6917 29.9686 32.6824 29.7774 33.8721 30.4468C34.3675 30.7883 34.5473 31.1264 34.7344 31.6875C34.8243 32.6043 34.6584 33.2375 34.125 33.9727C33.1737 34.796 32.0663 35.1726 30.8824 35.5384C30.7036 35.5954 30.5249 35.6525 30.3407 35.7112C29.7715 35.8923 29.2013 36.0703 28.6311 36.2483C28.2572 36.3671 27.8834 36.486 27.5097 36.6051C26.5909 36.897 25.6702 37.1819 24.7487 37.4649C24.2437 37.6224 23.7413 37.7867 23.2391 37.9528C19.3762 39.2046 16.4223 38.5163 12.6231 37.4331C12.0358 37.2664 11.4474 37.104 10.859 36.9413C10.1979 36.7584 9.53693 36.5751 8.87688 36.3885C8.77719 36.3604 8.67751 36.3323 8.5748 36.3033C8.30684 36.2276 8.03897 36.1516 7.77111 36.0756C7.36579 35.9674 6.96311 35.8773 6.55079 35.8008C6.5022 35.8999 6.45361 35.999 6.40354 36.1011C6.0074 36.4964 5.71162 36.4826 5.16716 36.487C4.98219 36.4838 4.98219 36.4838 4.79348 36.4804C4.66636 36.4803 4.53923 36.4801 4.40826 36.48C4.13972 36.4791 3.87118 36.4767 3.60267 36.4729C3.19072 36.4673 2.77898 36.4667 2.36699 36.4667C2.10624 36.4652 1.84549 36.4635 1.58474 36.4614C1.46112 36.461 1.3375 36.4607 1.21013 36.4603C0.340066 36.4456 0.340066 36.4456 1.1377e-05 36.1055C-0.0397041 35.6487 -0.0397041 35.6487 -0.0418311 35.0549C-0.0426097 34.9468 -0.0433883 34.8388 -0.0441905 34.7275C-0.0463124 34.3696 -0.0461614 34.0117 -0.0458108 33.6537C-0.0464026 33.4056 -0.0470629 33.1574 -0.047789 32.9092C-0.0489268 32.3887 -0.0488807 31.8683 -0.0480796 31.3478C-0.0471961 30.6797 -0.0497777 30.0117 -0.0533122 29.3437C-0.0555527 28.8311 -0.0556895 28.3186 -0.0552137 27.806C-0.0552921 27.5596 -0.0560958 27.3133 -0.0576243 27.0669C-0.0594966 26.7229 -0.0584794 26.379 -0.0567084 26.0351C-0.0568043 25.8391 -0.0569002 25.6431 -0.056999 25.4412C-0.0381856 25.2905 -0.0193721 25.1397 1.1377e-05 24.9844C0.569169 24.605 1.02041 24.6305 1.67996 24.6285C1.7996 24.6275 1.91924 24.6265 2.0425 24.6255C2.29541 24.6239 2.54832 24.6232 2.80122 24.6233C3.1878 24.6226 3.57412 24.6171 3.96065 24.6113C4.20652 24.6104 4.4524 24.6098 4.69827 24.6095C4.81365 24.6073 4.92904 24.6051 5.04792 24.6029C5.59451 24.6076 5.87493 24.6219 6.29509 24.9872C6.37947 25.0868 6.46385 25.1864 6.55079 25.2891C7.01684 25.3299 7.01684 25.3299 7.50294 25.251C7.66712 25.2314 7.83129 25.2117 8.00044 25.1915C8.12534 25.1734 8.25023 25.1554 8.37892 25.1368C8.41426 24.8057 8.41426 24.8057 8.11648 24.5613C7.99885 24.4527 7.88122 24.3441 7.76002 24.2322C5.66164 22.1734 4.69165 19.4567 4.65602 16.5579C4.66353 14.7737 4.90092 12.773 5.94142 11.2735C6.41749 11.1687 6.41749 11.1687 6.85548 11.1211C7.0713 10.7657 7.0713 10.7657 7.16017 10.3594C7.23558 10.1332 7.23558 10.1332 7.31251 9.90238C7.32901 9.77964 7.3455 9.65691 7.3625 9.53045C7.56171 8.77184 8.22037 8.36186 8.83595 7.92191C11.0501 6.66732 13.2606 6.39941 15.7343 6.98226C17.4703 7.5275 19.3039 8.46171 20.492 9.87084C20.7098 10.0898 20.7098 10.0898 21.024 10.0363C21.3733 9.8825 21.5279 9.72429 21.7756 9.43583C22.7713 8.395 24.049 7.6589 25.4414 7.31254C25.4343 7.21101 25.4273 7.10948 25.42 7.00488C25.3761 5.88363 25.561 4.97444 26.0508 3.96098C26.3555 3.65629 26.3555 3.65629 26.7268 3.52299C27.1884 3.32032 27.3267 3.17837 27.5742 2.74223C27.6025 2.57255 27.6308 2.40288 27.6599 2.22807C27.9897 1.39642 28.6096 1.12146 29.4024 0.761757C30.3443 0.377739 31.1863 0.224986 32.2017 0.238076Z" fill="#040202"/>
<path d="M18.1289 9.4452C18.6749 9.86824 19.1667 10.326 19.6523 10.8163C19.9521 11.114 20.214 11.3378 20.5664 11.578C21.128 11.5567 21.4091 11.4837 21.8482 11.1269C21.9594 11.0056 22.0705 10.8842 22.1851 10.7592C22.589 10.324 22.9741 9.93901 23.4609 9.59755C24.2246 9.9166 24.4075 10.4283 24.7463 11.1496C24.806 11.2761 24.8657 11.4026 24.9272 11.533C25.705 13.2753 26.5324 15.7353 26.2031 17.6718C26.0103 18.1449 25.7548 18.5535 25.47 18.9762C25.3667 19.1413 25.3667 19.1413 25.2614 19.3098C24.8801 19.8981 24.8801 19.8981 24.6797 20.1093C24.5289 20.1093 24.378 20.1093 24.2227 20.1093C24.152 19.9748 24.0814 19.8403 24.0086 19.7018C23.7448 19.2003 23.4799 18.6993 23.2147 18.1985C23.1004 17.9822 22.9863 17.7657 22.8725 17.5491C22.7084 17.2367 22.5432 16.9248 22.3779 16.6131C22.3277 16.5171 22.2775 16.421 22.2258 16.3221C21.9247 15.7572 21.5911 15.2641 21.1758 14.7772C20.8864 14.7893 20.8864 14.7893 20.5664 14.9296C20.284 15.3042 20.284 15.3042 20.0403 15.7776C19.9461 15.9489 19.8518 16.1203 19.7547 16.2968C19.6571 16.479 19.5595 16.6612 19.4619 16.8434C19.3621 17.0263 19.2622 17.2091 19.162 17.3918C18.9174 17.8396 18.6747 18.2884 18.4336 18.7382C17.8142 18.5317 17.6513 18.1227 17.3386 17.5861C17.2826 17.4923 17.2265 17.3985 17.1687 17.3019C17.0306 17.0704 16.894 16.838 16.7578 16.6054C16.3976 16.6051 16.3976 16.6051 15.9961 16.7577C15.7447 17.0893 15.5474 17.3878 15.3486 17.7479C15.2432 17.9305 15.1377 18.113 15.032 18.2954C14.948 18.4415 14.8639 18.5876 14.7773 18.7382C14.521 18.9946 14.1954 18.9253 13.8436 18.9387C13.6861 18.9451 13.5285 18.9515 13.3661 18.9581C13.2002 18.9641 13.0344 18.97 12.8635 18.9762C12.6139 18.9861 12.6139 18.9861 12.3592 18.9961C11.9465 19.0124 11.5338 19.0279 11.1211 19.0429C11.0629 19.2952 11.0123 19.5493 10.9688 19.8046C11.3918 20.2276 12.5544 20.0525 13.1206 20.0712C13.3072 20.0845 13.4937 20.0979 13.6859 20.1116C14.249 20.1263 14.6938 20.1184 15.2344 19.9569C15.722 19.4546 16.0209 18.9195 16.3008 18.2811C16.9202 18.4876 17.0831 18.8967 17.3958 19.4332C17.4799 19.5739 17.4799 19.5739 17.5657 19.7174C17.7038 19.9489 17.8404 20.1813 17.9766 20.414C18.3421 20.3976 18.3421 20.3976 18.7383 20.2616C19.017 19.9226 19.017 19.9226 19.2298 19.4856C19.3147 19.3287 19.3995 19.1718 19.4869 19.0101C19.5729 18.845 19.6589 18.6798 19.7476 18.5097C19.9197 18.1837 20.093 17.8583 20.2677 17.5337C20.3434 17.3887 20.4191 17.2437 20.4972 17.0942C20.7188 16.7577 20.7188 16.7577 21.1758 16.6054C21.2318 16.7089 21.2878 16.8125 21.3455 16.9192C21.6031 17.3955 21.8607 17.8716 22.1184 18.3478C22.2065 18.5107 22.2946 18.6736 22.3853 18.8414C22.4722 19.002 22.5591 19.1625 22.6486 19.3279C22.7341 19.486 22.8196 19.644 22.9077 19.8069C23.1946 20.3318 23.4892 20.852 23.7878 21.3703C23.918 21.6327 23.918 21.6327 23.918 21.9374C24.2699 21.9374 24.6218 21.9374 24.9844 21.9374C25.0252 21.8211 25.0661 21.7049 25.1082 21.5851C25.2806 21.1949 25.428 20.9933 25.7461 20.7186C25.7946 21.4829 25.6293 22.0906 25.3557 22.7943C25.3155 22.9 25.2753 23.0056 25.2339 23.1145C24.8436 24.1051 24.3399 25.0012 23.7656 25.8983C23.6985 25.8394 23.6313 25.7805 23.5621 25.7198C22.3974 24.8184 21.0669 24.6301 19.6523 24.3749C19.5098 24.3454 19.3672 24.316 19.2203 24.2856C16.8631 23.9772 14.4932 24.2186 12.1774 24.6837C11.9856 24.7211 11.9856 24.7211 11.7899 24.7592C11.5551 24.8061 11.321 24.8571 11.0881 24.913C10.7736 24.9765 10.7736 24.9765 10.207 24.9843C9.82489 24.7282 9.59853 24.5377 9.30249 24.2035C9.18625 24.0788 9.18625 24.0788 9.06765 23.9517C6.73561 21.3888 5.80421 18.8272 5.94141 15.3866C6.04074 14.3178 6.26711 13.4532 6.74359 12.4951C6.89567 12.1538 6.89567 12.1538 6.76978 11.6351C6.68533 10.9837 6.85244 10.7676 7.21848 10.2504C7.46485 10.0546 7.46485 10.0546 7.82904 10.0605C8.36888 10.0524 8.53574 9.85054 8.93116 9.49281C11.7031 7.15242 15.2181 7.61483 18.1289 9.4452Z" fill="#FB7F86"/>
<path d="M25.4414 8.53125C25.7461 8.68359 25.7461 8.68359 25.8717 9.01685C25.9151 9.15824 25.9585 9.29963 26.0032 9.44531C26.5727 11.0718 27.7291 12.2685 29.2405 13.0635C31.155 13.9561 32.9974 13.9181 34.9855 13.2349C35.1037 13.1909 35.2219 13.1469 35.3438 13.1016C35.4172 13.3395 35.4901 13.5775 35.5627 13.8157C35.6034 13.9482 35.644 14.0808 35.6859 14.2174C36.3718 16.6518 35.8937 19.0696 34.7915 21.2996C33.9119 22.7835 32.5593 23.9827 31.334 25.1801C30.9255 25.5815 30.537 25.9905 30.1647 26.4257C29.3689 27.344 28.5213 28.213 27.6704 29.08C27.4725 29.2826 27.276 29.4865 27.0806 29.6916C25.0979 31.7711 25.0979 31.7711 23.9545 31.846C23.8419 31.844 23.7293 31.8419 23.6133 31.8398C23.5127 31.8487 23.4122 31.8576 23.3086 31.8667C22.186 31.9351 21.0519 31.671 19.9509 31.4744C19.5932 31.411 19.2351 31.3509 18.8769 31.2909C18.6486 31.2509 18.4203 31.2107 18.192 31.1704C18.0853 31.1527 17.9787 31.1351 17.8688 31.1169C17.4483 31.0395 17.1149 30.962 16.7604 30.7171C16.4931 30.2887 16.66 29.8734 16.7578 29.4023C17.716 29.3892 18.647 29.3806 19.597 29.519C20.1291 29.5718 20.6606 29.5846 21.1948 29.5928C21.2987 29.596 21.4025 29.5993 21.5095 29.6026C22.2285 29.6075 22.6877 29.4477 23.3086 29.0977C23.4091 29.0977 23.5097 29.0977 23.6133 29.0977C23.684 28.9186 23.684 28.9186 23.7561 28.7358C23.918 28.3359 23.918 28.3359 24.0703 28.0312C24.1064 27.2847 24.1075 26.8641 23.7656 26.2031C23.8336 25.4764 24.1744 24.895 24.5083 24.2607C25.3807 22.6519 25.3807 22.6519 25.5938 20.8711C25.5089 21.0439 25.4241 21.2167 25.3367 21.3948C25.1042 21.8011 25.0355 21.9151 24.594 22.1089C24.2227 22.0898 24.2227 22.0898 24.0043 21.9196C23.6841 21.5348 23.4673 21.1236 23.2318 20.6819C23.1578 20.5435 23.1578 20.5435 23.0823 20.4024C22.9783 20.2077 22.8747 20.0128 22.7716 19.8177C22.6144 19.5207 22.4559 19.2243 22.2972 18.9281C21.4572 17.3518 21.4572 17.3518 21.1758 16.6055C20.7702 16.9704 20.5308 17.3588 20.2677 17.8349C20.141 18.0585 20.141 18.0585 20.0118 18.2866C19.8354 18.6008 19.6605 18.9158 19.4869 19.2316C19.4021 19.3803 19.3172 19.5289 19.2298 19.6821C19.1538 19.8188 19.0777 19.9555 18.9993 20.0964C18.7383 20.4141 18.7383 20.4141 18.3267 20.536C18.2112 20.546 18.0956 20.5561 17.9766 20.5664C17.8811 20.4124 17.7857 20.2585 17.6873 20.0999C17.5616 19.8999 17.4359 19.6999 17.3101 19.5C17.2472 19.3983 17.1844 19.2965 17.1196 19.1917C16.9564 18.9337 16.7817 18.683 16.6055 18.4336C16.5049 18.4336 16.4044 18.4336 16.3008 18.4336C16.0633 18.7712 16.0633 18.7712 15.8342 19.1858C15.3958 19.948 15.3958 19.948 15.2344 20.1094C14.5529 20.148 13.8697 20.1376 13.1873 20.1379C12.8978 20.1407 12.8978 20.1407 12.6026 20.1436C12.4187 20.1439 12.2348 20.1442 12.0453 20.1445C11.7906 20.1454 11.7906 20.1454 11.5309 20.1464C11.1211 20.1094 11.1211 20.1094 10.8164 19.8047C10.901 19.1107 10.901 19.1107 11.1211 18.8906C11.3656 18.8926 11.6101 18.9032 11.8542 18.9174C13.4584 19.0409 13.4584 19.0409 14.9126 18.5249C15.2847 18.0817 15.5152 17.609 15.745 17.0815C15.9961 16.6055 15.9961 16.6055 16.4091 16.4626C16.5242 16.4595 16.6392 16.4564 16.7578 16.4531C16.9297 16.694 17.101 16.9353 17.272 17.1768C17.3674 17.3111 17.4629 17.4454 17.5612 17.5838C17.8242 17.9766 17.8242 17.9766 17.992 18.3217C18.1107 18.6142 18.1107 18.6142 18.4336 18.7383C18.4754 18.6285 18.5173 18.5186 18.5604 18.4055C18.8592 17.685 19.2512 17.0178 19.6333 16.3389C19.714 16.191 19.7947 16.0431 19.8779 15.8908C19.957 15.7503 20.0362 15.6099 20.1177 15.4653C20.1892 15.3369 20.2606 15.2085 20.3342 15.0762C20.5664 14.7773 20.5664 14.7773 20.8991 14.6582C20.9904 14.6472 21.0817 14.6363 21.1758 14.625C22.0371 15.6876 22.6576 16.8473 23.2896 18.0527C23.3954 18.2527 23.5013 18.4527 23.6073 18.6526C23.8643 19.1376 24.12 19.6233 24.375 20.1094C24.8146 19.6853 25.1367 19.2328 25.47 18.7192C25.579 18.5555 25.688 18.3917 25.8002 18.2229C26.3278 17.0626 26.0148 15.8509 25.7556 14.644C25.7234 14.4927 25.6911 14.3413 25.6579 14.1853C25.3238 12.7442 24.7413 11.4737 24.0317 10.1816C23.918 9.90234 23.918 9.90234 23.918 9.29297C24.1648 9.16138 24.4125 9.03158 24.6606 8.90259C24.7985 8.83012 24.9364 8.75766 25.0784 8.683C25.1982 8.63292 25.318 8.58284 25.4414 8.53125Z" fill="#FB626D"/>
<path d="M19.8904 25.4033C20.0468 25.4273 20.2032 25.4512 20.3644 25.4759C21.2431 25.6238 21.8507 25.794 22.5469 26.3554C22.6411 26.4183 22.7354 26.4811 22.8325 26.5459C23.127 27.0039 23.1047 27.5064 23.0039 28.0312C22.6115 28.4507 22.1882 28.6209 21.612 28.6662C20.5277 28.6745 19.4884 28.5563 18.4175 28.4026C17.2478 28.2426 17.2478 28.2426 16.1675 28.6025C15.7829 29.0097 15.5554 29.32 15.5159 29.8873C15.5758 30.5164 15.6387 30.855 16.0247 31.3733C17.0148 32.0994 18.3085 32.1849 19.4905 32.3921C19.6779 32.427 19.8654 32.462 20.0585 32.498C22.5558 32.9366 24.6575 32.7008 27.0981 32.1636C27.3623 32.1072 27.6265 32.0511 27.8908 31.9951C28.3765 31.8919 28.8619 31.7877 29.3469 31.6816C29.4558 31.6578 29.5646 31.634 29.6767 31.6095C29.9107 31.5576 30.1445 31.5045 30.378 31.4506C30.4979 31.4231 30.6178 31.3956 30.7414 31.3672C30.8489 31.3422 30.9564 31.3171 31.0672 31.2913C31.7666 31.1564 32.3769 31.1396 33.0491 31.4114C33.3633 31.6875 33.3633 31.6875 33.5156 32.0493C33.5156 32.582 33.3896 32.7945 33.0586 33.2109C32.3964 33.7144 31.7551 33.974 30.9597 34.1833C30.7283 34.2478 30.497 34.3127 30.2659 34.378C30.148 34.4113 30.03 34.4445 29.9085 34.4788C29.344 34.6435 28.7874 34.8299 28.2306 35.0188C28.1209 35.0559 28.0112 35.0931 27.8981 35.1313C27.6735 35.2075 27.4489 35.2838 27.2243 35.3601C26.2811 35.6796 25.3352 35.9913 24.3898 36.3042C24.0963 36.4015 23.803 36.4997 23.5097 36.598C20.5078 37.5949 18.1647 37.7966 15.1438 36.8289C14.4811 36.6226 13.8099 36.4472 13.1396 36.2673C12.857 36.1904 12.5743 36.1135 12.2916 36.0364C12.1498 35.9978 12.008 35.9592 11.8619 35.9195C11.123 35.7183 10.3841 35.5167 9.64526 35.3152C9.38124 35.2432 9.11722 35.1711 8.8532 35.0991C8.03494 34.876 7.21669 34.6528 6.39844 34.4297C6.39844 31.916 6.39844 29.4023 6.39844 26.8125C8.43863 26.3024 8.43863 26.3024 9.2412 26.2043C10.0502 26.097 10.8512 25.9679 11.6537 25.8211C11.8793 25.7804 12.105 25.7397 12.3306 25.6991C12.6733 25.6372 13.0158 25.5747 13.3581 25.5105C15.5841 25.0946 17.6412 25.0116 19.8904 25.4033Z" fill="#FCCFA1"/>
<path d="M34.6695 1.93159C36.2314 2.78168 37.1733 3.97122 37.7812 5.63664C37.8455 6.05777 37.854 6.46799 37.8479 6.89347C37.8466 7.00698 37.8454 7.12049 37.8441 7.23744C37.7954 8.8396 37.2384 10.1293 36.1055 11.2734C35.6718 11.6298 35.2263 11.9181 34.7344 12.1874C34.6444 12.2393 34.5545 12.2911 34.4618 12.3445C33.3047 12.8951 31.5602 12.8299 30.345 12.4921C28.6327 11.7849 27.4965 10.5613 26.7875 8.86978C26.6249 8.24281 26.6099 7.66219 26.6125 7.01725C26.6101 6.89952 26.6076 6.78179 26.6051 6.6605C26.6046 6.0628 26.6464 5.59794 26.8976 5.05107C27.1706 4.57347 27.1706 4.57347 27.022 4.02751C26.9648 3.50383 26.9648 3.50383 27.2695 2.98014C27.842 2.49118 28.0605 2.57735 28.793 2.58976C29.1214 2.42648 29.4093 2.2365 29.7082 2.02443C31.0762 1.13927 33.2157 1.30064 34.6695 1.93159Z" fill="#D3D8E6"/>
<path d="M31.0781 1.82823C32.2242 2.57022 33.0718 3.74561 33.5156 5.02744C33.5787 5.40176 33.5787 5.40176 33.6108 5.7606C33.6222 5.88098 33.6336 6.00136 33.6454 6.12539C33.6528 6.21553 33.6603 6.30567 33.668 6.39854C33.4166 6.39854 33.1652 6.39854 32.9062 6.39854C32.856 5.74498 32.8057 5.09143 32.7539 4.41807C32.5025 4.41807 32.2512 4.41807 31.9922 4.41807C31.706 4.70421 31.7803 5.18578 31.7541 5.57017C31.7322 5.8938 31.7102 6.21744 31.6875 6.55088C30.7072 6.62629 30.7072 6.62629 29.707 6.70322C29.6568 6.90432 29.6065 7.10541 29.5547 7.3126C29.9432 7.70116 31.2167 7.58529 31.6875 7.61729C31.7629 8.59762 31.7629 8.59762 31.8398 9.59776C32.0409 9.64803 32.242 9.6983 32.4492 9.7501C32.8437 9.35564 32.8109 9.1366 32.8491 8.58848C32.8605 8.43569 32.8719 8.28291 32.8836 8.1255C32.8911 8.00806 32.8986 7.89062 32.9062 7.76963C33.1576 7.76963 33.409 7.76963 33.668 7.76963C33.3446 9.59232 32.6333 10.8163 31.2305 12.0353C30.7617 12.3477 30.58 12.4081 30.0355 12.3066C28.5904 11.783 27.6279 10.6346 26.9648 9.29307C26.6426 8.52416 26.6091 7.83786 26.6125 7.01743C26.6101 6.8997 26.6076 6.78197 26.6051 6.66068C26.6046 6.06298 26.6464 5.59812 26.8976 5.05125C27.1706 4.57365 27.1706 4.57365 27.022 4.02769C26.9648 3.50401 26.9648 3.50401 27.2695 2.98032C27.842 2.49136 28.0605 2.57753 28.793 2.58994C29.2291 2.3766 29.6149 2.10644 30.0117 1.82823C30.4295 1.61933 30.6342 1.70121 31.0781 1.82823Z" fill="#F4EEEC"/>
<path d="M1.06642 25.8984C2.47407 25.8984 3.88173 25.8984 5.33204 25.8984C5.33204 29.0154 5.33204 32.1323 5.33204 35.3438C3.97466 35.3438 2.61728 35.3438 1.21876 35.3438C1.06642 35.1914 1.06642 35.1914 1.0481 34.8203C1.04843 34.6555 1.04877 34.4908 1.04912 34.321C1.04913 34.135 1.04914 33.949 1.04916 33.7573C1.04993 33.5528 1.05073 33.3482 1.05154 33.1437C1.05182 32.9356 1.05204 32.7274 1.05219 32.5193C1.05277 31.9706 1.05427 31.4218 1.05596 30.8731C1.05751 30.3135 1.05822 29.7539 1.05898 29.1944C1.06053 28.0957 1.06351 26.9971 1.06642 25.8984Z" fill="#99E6FC"/>
<path d="M20.7188 14.625C21.107 14.6672 21.283 14.7277 21.5481 15.0195C22.2052 16.0576 22.7904 17.1294 23.3657 18.2146C23.4642 18.3992 23.5628 18.5838 23.6615 18.7683C23.9 19.215 24.1378 19.662 24.375 20.1094C24.8323 19.6748 25.1394 19.1817 25.4604 18.6431C26.0348 17.6878 26.0348 17.6878 26.2031 17.5195C26.5818 17.5004 26.9561 17.4908 27.335 17.4886C27.4487 17.4877 27.5623 17.4869 27.6794 17.486C27.9205 17.4845 28.1615 17.4835 28.4025 17.4829C28.7714 17.4815 29.1401 17.4767 29.5089 17.4719C29.7427 17.4709 29.9766 17.4701 30.2105 17.4695C30.3209 17.4677 30.4314 17.4658 30.5452 17.4638C31.3076 17.4672 31.3076 17.4672 31.687 17.7309C31.8398 17.9766 31.8398 17.9766 31.8018 18.3003C31.6875 18.5859 31.6875 18.5859 31.5352 18.7383C31.1732 18.7517 30.8158 18.7558 30.4539 18.7532C30.2919 18.7528 30.2919 18.7528 30.1266 18.7525C29.7805 18.7517 29.4343 18.7497 29.0881 18.7478C28.854 18.747 28.6198 18.7463 28.3856 18.7457C27.8105 18.744 27.2353 18.7414 26.6602 18.7383C26.6157 18.8787 26.5712 19.019 26.5253 19.1637C26.3318 19.7203 26.0673 20.1715 25.7556 20.6711C25.6506 20.8414 25.5455 21.0117 25.4372 21.1871C24.951 21.9083 24.951 21.9083 24.6797 22.0898C24.3161 22.125 24.3161 22.125 23.918 21.9375C23.6159 21.5254 23.405 21.0738 23.1848 20.614C23.0529 20.35 22.9205 20.0862 22.7879 19.8225C22.7224 19.6911 22.657 19.5597 22.5895 19.4243C22.2194 18.7004 21.802 18.0045 21.3888 17.3047C21.1758 16.9102 21.1758 16.9102 21.1758 16.6055C20.7702 16.9704 20.5308 17.3588 20.2677 17.8349C20.1832 17.984 20.0988 18.133 20.0118 18.2866C19.8354 18.6008 19.6605 18.9158 19.4869 19.2316C19.4021 19.3803 19.3172 19.5289 19.2298 19.6821C19.1538 19.8188 19.0777 19.9555 18.9993 20.0964C18.7383 20.4141 18.7383 20.4141 18.3267 20.536C18.2112 20.546 18.0956 20.5561 17.9766 20.5664C17.8811 20.4124 17.7857 20.2585 17.6873 20.0999C17.5616 19.8999 17.4359 19.6999 17.3101 19.5C17.2472 19.3983 17.1844 19.2966 17.1196 19.1917C16.9564 18.9337 16.7817 18.683 16.6055 18.4336C16.5049 18.4336 16.4044 18.4336 16.3008 18.4336C16.0633 18.7712 16.0633 18.7712 15.8342 19.1858C15.3958 19.948 15.3958 19.948 15.2344 20.1094C14.5529 20.148 13.8697 20.1376 13.1873 20.1379C12.9943 20.1398 12.8014 20.1417 12.6026 20.1436C12.4187 20.1439 12.2348 20.1442 12.0453 20.1445C11.7906 20.1454 11.7906 20.1454 11.5309 20.1464C11.1211 20.1094 11.1211 20.1094 10.8164 19.8047C10.901 19.1107 10.901 19.1107 11.1211 18.8906C11.3656 18.8926 11.6101 18.9032 11.8542 18.9174C13.4584 19.0409 13.4584 19.0409 14.9126 18.5249C15.2847 18.0817 15.5152 17.609 15.745 17.0815C15.9961 16.6055 15.9961 16.6055 16.4091 16.4626C16.5242 16.4595 16.6392 16.4564 16.7578 16.4531C16.9297 16.694 17.101 16.9353 17.272 17.1768C17.3674 17.3111 17.4629 17.4454 17.5612 17.5838C17.8242 17.9766 17.8242 17.9766 17.992 18.3217C18.1107 18.6142 18.1107 18.6142 18.4336 18.7383C18.4751 18.6285 18.5166 18.5186 18.5594 18.4055C18.7349 17.9848 18.936 17.6029 19.1626 17.2077C19.2434 17.0665 19.3242 16.9253 19.4075 16.7798C19.4914 16.6343 19.5754 16.4888 19.6619 16.3389C19.7464 16.191 19.8309 16.0431 19.9181 15.8908C20.545 14.7987 20.545 14.7987 20.7188 14.625Z" fill="#0A0505"/>
<path d="M6.39844 26.8125C6.44871 26.8125 6.49898 26.8125 6.55078 26.8125C6.55078 29.0245 6.55078 31.2366 6.55078 33.5156C7.15406 33.6162 7.75734 33.7167 8.37891 33.8203C8.96769 33.98 9.54844 34.1456 10.1309 34.325C11.4139 34.7103 12.698 35.0648 14.0009 35.3765C14.7088 35.5478 15.3988 35.746 16.0909 35.9724C19.2937 37.0052 22.0641 35.9342 25.1462 34.9438C25.4458 34.8479 25.7453 34.7519 26.0449 34.6559C26.7774 34.4209 27.5096 34.1849 28.2418 33.9487C28.6082 33.8308 28.9748 33.7135 29.3415 33.5966C29.9178 33.4128 30.4933 33.2265 31.0686 33.0396C31.2323 32.9876 31.396 32.9356 31.5647 32.8821C32.3247 32.6318 32.9289 32.4101 33.5156 31.8398C33.4913 32.4605 33.4516 32.8068 33.033 33.2782C32.2424 33.8935 31.2321 34.1063 30.2878 34.3916C29.9687 34.4906 29.6498 34.5904 29.3309 34.6902C29.1141 34.7579 28.8972 34.8254 28.6803 34.8926C27.8115 35.1623 26.949 35.4488 26.0875 35.7412C25.4195 35.9677 24.7499 36.1891 24.0797 36.4092C23.7768 36.5088 23.4742 36.6091 23.1719 36.7105C20.3208 37.6566 18.006 37.7458 15.1438 36.8289C14.4811 36.6227 13.8099 36.4472 13.1396 36.2673C12.857 36.1905 12.5743 36.1135 12.2916 36.0364C12.1498 35.9978 12.008 35.9593 11.8619 35.9195C11.123 35.7183 10.3841 35.5167 9.64526 35.3152C9.38124 35.2432 9.11722 35.1712 8.8532 35.0992C8.03494 34.876 7.21669 34.6528 6.39844 34.4297C6.39844 31.916 6.39844 29.4023 6.39844 26.8125Z" fill="#F7B782"/>
<path d="M31.9922 4.26562C32.3692 4.34104 32.3692 4.34104 32.7539 4.41797C32.7539 5.1218 32.7539 5.82562 32.7539 6.55078C33.4577 6.55078 34.1616 6.55078 34.8867 6.55078C34.9621 6.92783 34.9621 6.92783 35.0391 7.3125C34.7344 7.61719 34.7344 7.61719 34.2714 7.64694C34.0911 7.64341 33.9108 7.63987 33.7251 7.63623C33.544 7.63348 33.363 7.63073 33.1764 7.6279C33.037 7.62436 32.8976 7.62083 32.7539 7.61719C32.7574 7.75662 32.761 7.89605 32.7646 8.0397C32.7687 8.3113 32.7687 8.3113 32.7729 8.58838C32.7765 8.76866 32.78 8.94893 32.7837 9.13467C32.7539 9.59766 32.7539 9.59766 32.4492 9.90234C31.9106 9.82073 31.9106 9.82073 31.6875 9.59766C31.6764 9.26457 31.6747 8.93115 31.678 8.5979C31.68 8.32424 31.68 8.32424 31.6821 8.04506C31.6839 7.90386 31.6857 7.76266 31.6875 7.61719C31.5481 7.62072 31.4086 7.62426 31.265 7.6279C30.9934 7.63202 30.9934 7.63202 30.7163 7.63623C30.536 7.63977 30.3558 7.6433 30.17 7.64694C29.707 7.61719 29.707 7.61719 29.4023 7.3125C29.484 6.77386 29.484 6.77386 29.707 6.55078C30.0401 6.53972 30.3735 6.53802 30.7068 6.54126C30.9804 6.54332 30.9804 6.54332 31.2596 6.54543C31.4008 6.54719 31.542 6.54896 31.6875 6.55078C31.684 6.41135 31.6804 6.27192 31.6768 6.12827C31.674 5.9472 31.6713 5.76614 31.6685 5.57959C31.6649 5.39931 31.6614 5.21904 31.6577 5.03329C31.6875 4.57031 31.6875 4.57031 31.9922 4.26562Z" fill="#010101"/>
<path d="M1.06642 25.8984C1.11669 25.8984 1.16696 25.8984 1.21876 25.8984C1.21876 28.6635 1.21876 31.4285 1.21876 34.2773C2.52587 34.2773 3.83298 34.2773 5.1797 34.2773C5.1797 31.5123 5.1797 28.7473 5.1797 25.8984C5.22997 25.8984 5.28024 25.8984 5.33204 25.8984C5.33204 29.0154 5.33204 32.1323 5.33204 35.3438C3.97466 35.3438 2.61728 35.3438 1.21876 35.3438C1.06642 35.1914 1.06642 35.1914 1.0481 34.8203C1.04843 34.6555 1.04877 34.4908 1.04912 34.321C1.04913 34.135 1.04914 33.949 1.04916 33.7573C1.04993 33.5528 1.05073 33.3482 1.05154 33.1437C1.05182 32.9356 1.05204 32.7274 1.05219 32.5193C1.05277 31.9706 1.05427 31.4218 1.05596 30.8731C1.05751 30.3135 1.05821 29.7539 1.05898 29.1944C1.06061 28.0957 1.06321 26.9971 1.06642 25.8984Z" fill="#5AB1C8"/>
<path d="M19.0298 27.3796C19.242 27.4077 19.4542 27.436 19.6664 27.4643C20.8345 27.6164 21.8955 27.7361 23.0039 27.2694C23.042 27.6217 23.042 27.6217 23.0039 28.0312C22.3384 28.6737 21.6519 28.6719 20.7759 28.6661C19.9827 28.6266 19.2032 28.5153 18.4175 28.4025C17.1572 28.2341 17.1572 28.2341 15.9961 28.6405C16.089 27.8044 16.089 27.8044 16.3436 27.4706C17.0315 26.9422 18.2325 27.2762 19.0298 27.3796Z" fill="#F8B782"/>
<path d="M16.7578 29.4024C17.9689 29.3682 19.0843 29.4094 20.2617 29.7071C18.9863 31.0576 18.9863 31.0576 18.2051 31.0978C17.2001 31.0263 17.2001 31.0263 16.7852 30.7235C16.6055 30.4688 16.6055 30.4688 16.6531 29.9071C16.6876 29.7405 16.7222 29.574 16.7578 29.4024Z" fill="#F47B81"/>
</g>
<defs>
<clipPath id="clip0_27_2352">
<rect width="39" height="39" fill="white"/>
</clipPath>
</defs>
</svg>
