<svg width="39" height="39" viewBox="0 0 39 39" fill="none" xmlns="http://www.w3.org/2000/svg">
<g clip-path="url(#clip0_27_2233)">
<path d="M20.5855 0.971303C21.8289 2.10664 22.6248 3.98836 22.8516 5.63683C23.0589 5.65097 23.0589 5.65097 23.2705 5.66539C25.5415 6.00354 27.7238 7.5614 29.0774 9.36806C30.8202 11.9486 31.2032 15.0162 30.6747 18.0612C30.1238 20.288 28.9198 22.1024 27.6163 23.9459C25.6737 26.7119 25.2311 29.1139 25.2425 32.4603C25.2451 34.4323 25.2451 34.4323 24.7719 35.0166C24.0331 35.6258 23.4977 35.6858 22.5469 35.6485C22.5557 35.7607 22.5646 35.8728 22.5737 35.9883C22.6304 37.2145 22.6304 37.2145 22.1851 37.8004C21.3496 38.3972 20.5405 38.2779 19.5381 38.286C19.3582 38.2904 19.1783 38.2948 18.993 38.2994C17.3298 38.3116 17.3298 38.3116 16.6055 37.629C16.404 37.2261 16.4384 36.9164 16.4436 36.4674C16.445 36.3146 16.4464 36.1618 16.4478 36.0044C16.4495 35.887 16.4513 35.7695 16.4531 35.6485C16.296 35.658 16.1389 35.6674 15.9771 35.6771C15.1758 35.6383 14.7074 35.4314 14.1463 34.8579C13.7989 34.3324 13.7855 34.0235 13.7812 33.3973C13.7776 33.1963 13.7741 32.9953 13.7705 32.7882C13.7695 32.5769 13.7687 32.3655 13.7681 32.1542C13.7997 29.1662 13.7997 29.1662 12.8826 26.3746C12.8038 26.2243 12.8038 26.2243 12.7233 26.0709C12.1979 25.0982 11.566 24.2015 10.9301 23.2992C8.69917 20.1231 7.78259 16.9639 8.27231 13.0398C8.38921 12.4203 8.58667 11.851 8.83594 11.2735C8.89702 11.13 8.95809 10.9864 9.02102 10.8385C10.2627 8.28672 12.5265 6.71618 15.1213 5.75525C15.5391 5.63683 15.5391 5.63683 16.1484 5.63683C16.1736 5.46087 16.1987 5.28492 16.2246 5.10363C16.3903 4.34976 16.7007 3.69515 17.0435 3.0089C17.0952 2.90452 17.147 2.80015 17.2003 2.69261C17.5521 2.00568 17.9189 1.33832 18.5479 0.866567C19.2932 0.638817 19.8854 0.663266 20.5855 0.971303Z" fill="#FEEA86"/>
<path d="M20.1094 0.761798C21.0757 1.18696 21.4741 1.99304 21.9375 2.89461C22.0017 3.01912 22.0659 3.14362 22.1321 3.2719C23.242 5.6761 23.7192 8.39722 23.8472 11.0234C23.9129 11.8837 23.9995 12.3754 24.6624 12.96C24.8685 13.1126 25.0773 13.2616 25.2891 13.4063C26.1778 14.1173 26.1778 14.1173 26.3555 14.4727C26.3636 14.7527 26.3636 14.7527 26.3477 15.0952C26.3419 15.2231 26.3362 15.351 26.3302 15.4828C26.3228 15.6208 26.3155 15.7588 26.3079 15.901C26.3007 16.0421 26.2935 16.1833 26.2861 16.3287C26.2302 17.35 26.1502 18.3679 26.0508 19.3858C26.0318 19.583 26.0318 19.583 26.0125 19.7842C25.9177 20.6996 25.9177 20.6996 25.7461 20.8712C25.3748 20.8997 25.3748 20.8997 24.9844 20.8712C24.6797 20.5665 24.6797 20.5665 24.5654 20.0142C24.393 19.2536 23.9833 18.6982 23.4609 18.129C23.3604 18.0787 23.2599 18.0284 23.1563 17.9766C23.1415 18.1114 23.1268 18.2461 23.1116 18.3849C22.9954 18.9308 22.8266 19.2243 22.4993 19.6715C22.4087 19.7975 22.3182 19.9236 22.2249 20.0535C21.4784 20.9902 21.4784 20.9902 20.9402 21.1096C20.4694 21.1214 19.9996 21.1291 19.5286 21.1283C19.3659 21.1344 19.2032 21.1406 19.0355 21.147C18.2188 21.1505 17.6632 21.1246 17.0554 20.5451C16.65 20.0602 16.3466 19.5513 16.0818 18.9764C16.0066 18.8163 15.9314 18.6563 15.8539 18.4914C15.8003 18.3718 15.7467 18.2522 15.6914 18.129C14.8368 18.9374 14.4729 19.5864 14.168 20.7188C14.0156 20.8712 14.0156 20.8712 13.6253 20.8807C13.5027 20.8776 13.3802 20.8744 13.2539 20.8712C12.911 19.8769 12.8498 18.888 12.7778 17.8433C12.7647 17.6707 12.7515 17.4981 12.738 17.3203C12.7021 16.8283 12.6722 16.3363 12.6445 15.8438C12.6348 15.7106 12.625 15.5774 12.6149 15.4402C12.5875 14.8544 12.5923 14.5599 12.8998 14.0466C13.2684 13.6973 13.6425 13.3744 14.0442 13.0636C14.5024 12.7195 14.5024 12.7195 14.9297 12.3399C14.9764 11.8892 15.0163 11.4394 15.0535 10.9879C15.1974 9.42571 15.4688 7.92085 15.8438 6.39852C15.871 6.28597 15.8983 6.17342 15.9264 6.05745C16.2335 4.82149 16.6237 3.67298 17.2149 2.54232C17.2636 2.4484 17.3124 2.35448 17.3626 2.25771C18.0005 1.10746 18.7993 0.597427 20.1094 0.761798Z" fill="#65DDFE"/>
<path d="M13.8633 29.707C17.5835 29.707 21.3038 29.707 25.1367 29.707C25.1367 34.4297 25.1367 34.4297 24.375 35.3438C23.7721 35.6928 23.2338 35.6754 22.5469 35.6484C22.5557 35.7606 22.5645 35.8727 22.5737 35.9882C22.6303 37.2144 22.6303 37.2144 22.1851 37.8003C21.3496 38.3971 20.5405 38.2778 19.5381 38.2859C19.3582 38.2903 19.1783 38.2947 18.993 38.2993C17.3298 38.3115 17.3298 38.3115 16.6055 37.6289C16.404 37.226 16.4384 36.9163 16.4436 36.4673C16.445 36.3145 16.4464 36.1617 16.4478 36.0043C16.4495 35.8869 16.4513 35.7694 16.4531 35.6484C16.2175 35.6626 16.2175 35.6626 15.9771 35.677C15.3322 35.6458 15.0118 35.5388 14.4727 35.1914C13.8633 34.4297 13.8633 34.4297 13.8633 29.707Z" fill="#7986BE"/>
<path d="M8.67703 27.2993C9.59575 28.1109 10.1419 29.1775 10.2582 30.395C10.2738 31.8862 10.0897 32.9155 9.27391 34.1631C8.17625 35.213 7.00804 35.7271 5.5034 35.8484C3.92222 35.7957 2.80398 35.1009 1.71385 34.0108C0.839237 32.7474 0.579239 31.5411 0.761706 30.0117C1.08608 28.6509 1.88402 27.6087 3.03734 26.8316C4.89217 25.7701 6.97451 26.088 8.67703 27.2993Z" fill="#FBD831"/>
<path d="M36.1245 26.9078C37.3494 27.9197 38.1261 28.8833 38.2853 30.4849C38.3413 31.9338 38.0551 33.0426 37.1338 34.1727C36.1018 35.262 35.0125 35.7293 33.5347 35.8485C32.1781 35.8084 31.0637 35.2728 30.0688 34.3727C28.9542 33.1407 28.7218 32.0634 28.7442 30.4344C28.8364 29.3474 29.2207 28.3439 30.0117 27.5743C31.9091 26.0549 33.9609 25.7828 36.1245 26.9078Z" fill="#FBD731"/>
<path d="M22.8516 5.63672C24.9885 5.78242 27.0815 7.12431 28.518 8.65622C30.6903 11.2799 30.9571 14.0896 30.7734 17.3672C30.4841 19.8681 29.0297 21.9469 27.6163 23.9458C26.2972 25.8241 25.5397 27.4054 25.2891 29.707C24.4847 29.707 23.6803 29.707 22.8516 29.707C22.7518 27.1122 23.7971 25.2457 25.27 23.1848C27.5757 19.9563 28.9088 16.6226 28.2777 12.5757C27.9726 11.1873 27.365 9.96894 26.5078 8.83594C26.4247 8.72518 26.3417 8.61442 26.2561 8.50031C25.3396 7.37032 24.1169 6.62912 22.8516 5.94141C22.8516 5.84086 22.8516 5.74031 22.8516 5.63672Z" fill="#FCDB35"/>
<path d="M19.4619 0.70459C20.1467 0.729313 20.5075 0.900054 21.0234 1.37109C21.38 1.85443 21.6632 2.36083 21.9375 2.89453C22.0017 3.01904 22.0659 3.14354 22.1321 3.27182C23.242 5.67602 23.7192 8.39714 23.8472 11.0233C23.9129 11.8836 23.9995 12.3754 24.6624 12.9599C24.8685 13.1125 25.0773 13.2616 25.2891 13.4063C26.1778 14.1173 26.1778 14.1173 26.3555 14.4727C26.3636 14.7526 26.3636 14.7526 26.3477 15.0951C26.3419 15.223 26.3361 15.3509 26.3302 15.4827C26.3228 15.6207 26.3154 15.7587 26.3079 15.9009C26.2971 16.1126 26.2971 16.1126 26.2861 16.3286C26.2302 17.3499 26.1502 18.3678 26.0508 19.3857C26.0318 19.5829 26.0318 19.5829 26.0125 19.7841C25.9177 20.6995 25.9177 20.6995 25.7461 20.8711C25.3748 20.8997 25.3748 20.8997 24.9844 20.8711C24.6797 20.5664 24.6797 20.5664 24.5654 20.0142C24.393 19.2535 23.9833 18.6981 23.4609 18.1289C23.3604 18.0786 23.2598 18.0284 23.1563 17.9766C23.1415 18.1113 23.1268 18.246 23.1116 18.3848C22.9954 18.9307 22.8266 19.2242 22.4993 19.6714C22.4087 19.7975 22.3182 19.9235 22.2249 20.0534C22.1301 20.1724 22.0352 20.2915 21.9375 20.4141C21.8466 20.5291 21.7557 20.6442 21.662 20.7628C21.1982 21.1249 20.8798 21.0847 20.2998 21.0615C20.1215 21.056 19.9432 21.0505 19.7595 21.0449C19.6236 21.0378 19.4877 21.0307 19.3477 21.0234C19.414 20.929 19.4804 20.8345 19.5488 20.7372C22.2313 16.7483 22.2255 11.6663 21.349 7.0816C20.9497 5.11386 20.4871 3.05976 19.3477 1.37109C18.956 1.1659 18.956 1.1659 18.5859 1.06641C18.8906 0.761719 18.8906 0.761719 19.4619 0.70459Z" fill="#2FCFFA"/>
<path d="M13.8633 29.707C17.5835 29.707 21.3038 29.707 25.1367 29.707C25.1367 30.7125 25.1367 31.718 25.1367 32.7539C21.4165 32.7539 17.6962 32.7539 13.8633 32.7539C13.8633 31.7484 13.8633 30.743 13.8633 29.707Z" fill="#919DCD"/>
<path d="M33.3633 27.2696C34.3807 27.159 35.1033 27.4774 35.9531 28.0313C36.8854 28.8173 37.2538 29.8116 37.3813 31.002C37.2533 32.1968 36.883 33.1804 35.9531 33.9727C34.87 34.7353 33.9016 34.835 32.6016 34.7345C32.6016 34.6842 32.6016 34.6339 32.6016 34.5821C32.8529 34.5821 33.1043 34.5821 33.3633 34.5821C33.2879 34.4941 33.2125 34.4062 33.1348 34.3155C32.9062 33.9727 32.9062 33.9727 32.9062 33.3634C32.7931 33.3508 32.68 33.3382 32.5635 33.3253C32.0555 33.1867 31.8478 33.0225 31.5352 32.6017C31.5732 32.2589 31.5732 32.2589 31.6875 31.9923C32.0398 31.8875 32.0398 31.8875 32.4492 31.8399C32.5183 31.9138 32.5875 31.9876 32.6587 32.0637C32.8922 32.3294 32.8922 32.3294 33.2508 32.3416C33.4337 32.3336 33.4337 32.3336 33.6204 32.3255C33.7435 32.3214 33.8666 32.3173 33.9935 32.313C34.134 32.3051 34.134 32.3051 34.2773 32.297C34.2271 32.1461 34.1768 31.9953 34.125 31.8399C33.6745 31.6607 33.2174 31.5386 32.7509 31.4073C32.2534 31.2136 32.0109 31.0435 31.6875 30.6212C31.5677 30.152 31.5842 29.7225 31.6875 29.2501C32.0303 28.8892 32.3147 28.708 32.7539 28.4884C32.9139 28.1876 33.0662 27.8827 33.2109 27.5743C33.2612 27.4738 33.3115 27.3732 33.3633 27.2696Z" fill="#F8AD03"/>
<path d="M6.52758 27.3195C7.74033 27.6981 8.506 28.506 9.11206 29.5928C9.47539 30.7401 9.38483 31.7578 8.89604 32.8562C8.32907 33.8028 7.43856 34.4129 6.39844 34.7344C5.79859 34.7629 5.79859 34.7629 5.33203 34.7344C5.27548 34.5427 5.21892 34.351 5.16065 34.1535C4.96715 33.6286 4.91067 33.5374 4.40845 33.23C4.26077 33.1734 4.11309 33.1168 3.96094 33.0586C3.65625 32.7539 3.65625 32.7539 3.63721 32.354C3.64349 32.2346 3.64978 32.1152 3.65625 31.9922C3.98951 31.8874 3.98951 31.8874 4.41797 31.8398C4.67303 31.9902 4.92688 32.1427 5.17969 32.2969C5.65606 32.3732 5.65606 32.3732 6.09375 32.2969C6.1943 32.146 6.29485 31.9952 6.39844 31.8398C6.28807 31.8139 6.17771 31.788 6.064 31.7613C5.19723 31.544 4.50492 31.3415 3.8086 30.7734C3.56952 30.2953 3.60263 29.9297 3.65625 29.4023C3.99903 28.9548 3.99903 28.9548 4.41797 28.6406C4.61907 28.6406 4.82016 28.6406 5.02735 28.6406C5.00849 28.4709 5.00849 28.4709 4.98926 28.2978C5.02735 27.8789 5.02735 27.8789 5.25586 27.5171C5.70975 27.222 5.99988 27.2212 6.52758 27.3195Z" fill="#F8AD02"/>
<path d="M22.8516 32.7539C23.6057 32.7539 24.3598 32.7539 25.1367 32.7539C25.2387 34.427 25.2387 34.427 24.8035 34.9724C24.0547 35.6213 23.5297 35.687 22.5469 35.6484C22.5557 35.7606 22.5646 35.8727 22.5737 35.9882C22.6304 37.2144 22.6304 37.2144 22.1851 37.8003C21.3496 38.3971 20.5405 38.2778 19.5381 38.2859C19.2683 38.2925 19.2683 38.2925 18.993 38.2993C17.3298 38.3115 17.3298 38.3115 16.6055 37.6289C16.3949 37.2077 16.4386 36.8602 16.4436 36.3911C16.445 36.2242 16.4464 36.0573 16.4478 35.8853C16.4495 35.7569 16.4513 35.6284 16.4531 35.4961C16.6756 35.4928 16.6756 35.4928 16.9025 35.4894C17.4548 35.4805 18.007 35.4687 18.5592 35.4561C18.7978 35.4511 19.0365 35.4468 19.2751 35.4433C19.6189 35.4382 19.9626 35.4302 20.3064 35.4217C20.4124 35.4207 20.5184 35.4198 20.6277 35.4188C21.4447 35.3943 21.9494 35.1944 22.5118 34.6035C22.7358 34.2138 22.7746 33.9242 22.804 33.4775C22.8197 33.2387 22.8354 32.9999 22.8516 32.7539Z" fill="#5C679D"/>
<path d="M23.918 12.4922C24.437 12.7414 24.8578 13.0358 25.3081 13.3967C25.4405 13.5018 25.5728 13.6069 25.7092 13.7151C26.0682 14.0309 26.3386 14.2753 26.3809 14.7699C26.3749 14.8821 26.3688 14.9944 26.3626 15.11C26.3563 15.2374 26.35 15.3648 26.3436 15.4961C26.3349 15.6328 26.3263 15.7695 26.3174 15.9104C26.3095 16.0509 26.3017 16.1913 26.2936 16.336C26.2327 17.3544 26.149 18.3704 26.0508 19.3857C26.0382 19.5172 26.0255 19.6487 26.0125 19.7841C25.9176 20.6996 25.9176 20.6996 25.7461 20.8711C25.3748 20.8997 25.3748 20.8997 24.9844 20.8711C24.6797 20.5664 24.6797 20.5664 24.575 20.0237C24.4487 19.4327 24.2125 19.1394 23.8037 18.7002C23.4418 18.2695 23.3102 18.079 23.3015 17.51C23.3811 17.0456 23.4866 16.602 23.6133 16.1484C23.7984 15.4042 23.8166 14.6548 23.8513 13.8918C23.8579 13.7572 23.8645 13.6226 23.8713 13.4839C23.8873 13.1534 23.9027 12.8228 23.918 12.4922Z" fill="#034EBC"/>
<path d="M15.082 12.4922C15.0842 12.5771 15.0865 12.6621 15.0888 12.7496C15.1004 13.1495 15.1146 13.5492 15.1296 13.949C15.1373 14.1674 15.1373 14.1674 15.1451 14.3902C15.1859 15.2846 15.3098 16.0676 15.5486 16.9292C15.6983 17.5747 15.7527 17.8504 15.4605 18.4514C15.1296 18.8906 15.1296 18.8906 14.7797 19.2893C14.3813 19.7603 14.2844 20.1234 14.168 20.7188C14.0156 20.8711 14.0156 20.8711 13.6252 20.8806C13.5027 20.8775 13.3801 20.8743 13.2539 20.8711C12.9109 19.8768 12.8498 18.8879 12.7778 17.8433C12.7647 17.6706 12.7515 17.498 12.7379 17.3202C12.702 16.8282 12.6721 16.3363 12.6445 15.8438C12.6347 15.7106 12.625 15.5774 12.6149 15.4401C12.5875 14.8541 12.5919 14.5601 12.9004 14.0472C13.2675 13.698 13.6375 13.3687 14.0347 13.054C14.2332 12.8946 14.2332 12.8946 14.4357 12.732C14.7773 12.4922 14.7773 12.4922 15.082 12.4922Z" fill="#034EBC"/>
<path d="M5.63671 27.2694C5.56444 27.3543 5.49217 27.4391 5.41771 27.5265C5.14996 27.8624 5.14996 27.8624 5.14159 28.2692C5.10388 28.3917 5.06618 28.5143 5.02733 28.6405C4.49413 28.8976 4.49413 28.8976 3.96092 29.0975C3.72542 29.5685 3.76385 29.9498 3.80858 30.4686C4.2608 31.0502 4.76351 31.2512 5.44628 31.497C5.62459 31.5622 5.8029 31.6274 5.98662 31.6945C6.12252 31.7424 6.25841 31.7904 6.39842 31.8397C6.29788 32.0408 6.19733 32.2419 6.09374 32.4491C5.87143 32.4317 5.64929 32.4123 5.42723 32.392C5.30351 32.3814 5.17979 32.3708 5.05232 32.3598C4.72264 32.2968 4.72264 32.2968 4.41796 31.9921C4.21686 31.9921 4.01577 31.9921 3.80858 31.9921C3.75766 32.3537 3.75766 32.3537 3.80858 32.7538C4.10214 33.0369 4.36568 33.1893 4.74169 33.3441C5.14188 33.5842 5.20345 33.838 5.33202 34.2772C5.33202 34.428 5.33202 34.5789 5.33202 34.7343C4.13946 34.6917 3.49823 34.2624 2.65946 33.4364C1.8769 32.5666 1.76367 31.7113 1.79122 30.5817C1.88477 29.5225 2.27333 28.8315 3.05341 28.1139C3.88198 27.4606 4.58306 27.1816 5.63671 27.2694Z" fill="#F8AC03"/>
<path d="M33.3633 27.2695C33.2638 27.8068 33.0748 28.1979 32.7539 28.6405C32.5936 28.7285 32.4334 28.8165 32.2683 28.9072C31.8201 29.1962 31.8201 29.1962 31.7541 29.5713C31.7229 30.1683 31.7496 30.5067 32.1255 30.9828C32.6725 31.2673 33.2037 31.4145 33.8036 31.5494C33.9097 31.5949 34.0157 31.6405 34.125 31.6874C34.2464 32.0064 34.2464 32.0064 34.2773 32.2968C33.8127 32.5291 33.4178 32.485 32.9062 32.4491C32.7509 32.2998 32.5981 32.1478 32.4492 31.9921C32.0448 32.0272 32.0448 32.0272 31.6875 32.1445C31.7452 32.5628 31.8061 32.7234 32.1255 33.0109C32.4574 33.233 32.4574 33.233 32.9062 33.3632C33.0949 33.7616 33.2239 34.1638 33.3633 34.582C32.3987 34.6872 31.8712 34.5216 31.0858 33.9506C30.3727 33.3054 29.9044 32.4926 29.8177 31.5291C29.7838 30.3315 29.8222 29.4234 30.6211 28.4882C31.4251 27.7376 32.2335 27.2049 33.3633 27.2695Z" fill="#F8AC02"/>
<path d="M5.17969 27.7266C5.43493 27.7701 5.68911 27.8207 5.94141 27.8789C5.99168 28.1303 6.04196 28.3816 6.09375 28.6406C6.21001 28.6563 6.32627 28.672 6.44605 28.6882C6.88917 28.8016 7.06572 28.8661 7.3125 29.25C7.2649 29.6594 7.2649 29.6594 7.16016 30.0117C6.89356 30.1165 6.89356 30.1165 6.55078 30.1641C6.46281 30.0918 6.37483 30.0195 6.28418 29.9451C5.76642 29.5855 5.34412 29.676 4.72266 29.707C4.77293 29.8579 4.82321 30.0087 4.875 30.1641C5.19513 30.2875 5.19513 30.2875 5.57959 30.364C6.3677 30.5814 6.96086 30.8755 7.46485 31.5352C7.58857 32.03 7.57009 32.2692 7.3125 32.7099C7.12207 32.9634 7.12207 32.9634 6.70313 33.3633C6.50203 33.3633 6.30094 33.3633 6.09375 33.3633C6.04348 33.6146 5.99321 33.866 5.94141 34.125C5.56436 34.2004 5.56436 34.2004 5.17969 34.2773C5.14827 34.1611 5.11685 34.0448 5.08448 33.925C4.80939 33.3874 4.50364 33.296 3.96094 33.0586C3.65625 32.7539 3.65625 32.7539 3.63721 32.354C3.64349 32.2346 3.64978 32.1152 3.65625 31.9922C3.98951 31.8875 3.98951 31.8875 4.41797 31.8398C4.67303 31.9903 4.92688 32.1427 5.17969 32.2969C5.65606 32.3732 5.65606 32.3732 6.09375 32.2969C6.1943 32.1461 6.29485 31.9952 6.39844 31.8398C6.28807 31.8139 6.17771 31.788 6.064 31.7613C5.19723 31.544 4.50492 31.3415 3.8086 30.7734C3.56952 30.2953 3.60263 29.9297 3.65625 29.4023C3.99903 28.9548 3.99903 28.9548 4.41797 28.6406C4.61907 28.6406 4.82016 28.6406 5.02735 28.6406C5.0242 28.5181 5.02106 28.3955 5.01783 28.2693C5.02735 27.8789 5.02735 27.8789 5.17969 27.7266Z" fill="#FEE881"/>
<path d="M33.2109 27.7266C33.4623 27.7768 33.7137 27.8271 33.9727 27.8789C33.9789 27.97 33.9852 28.0611 33.9917 28.155C34.1916 28.6547 34.5659 28.7232 35.0391 28.9453C35.3438 29.4023 35.3438 29.4023 35.2866 29.7356C35.2395 29.8723 35.2395 29.8723 35.1914 30.0117C34.9248 30.1165 34.9248 30.1165 34.582 30.1641C34.4454 30.0557 34.4454 30.0557 34.3059 29.9451C33.8387 29.6114 33.4657 29.6748 32.9062 29.707C32.9062 29.8579 32.9062 30.0087 32.9062 30.1641C33.0311 30.201 33.156 30.2379 33.2847 30.2759C33.531 30.3525 33.531 30.3525 33.7822 30.4307C33.9448 30.4802 34.1074 30.5296 34.275 30.5806C34.7645 30.7861 35.0183 30.9661 35.3438 31.3828C35.413 31.8678 35.4513 32.1423 35.3438 32.6016C34.9576 33.092 34.7172 33.3182 34.125 33.5156C33.9393 33.8972 33.9393 33.8972 33.8203 34.2773C33.5689 34.2271 33.3176 34.1768 33.0586 34.125C33.0083 33.8736 32.958 33.6223 32.9062 33.3633C32.7931 33.3507 32.68 33.3381 32.5635 33.3252C32.0555 33.1866 31.8478 33.0224 31.5352 32.6016C31.5732 32.2588 31.5732 32.2588 31.6875 31.9922C32.0398 31.8875 32.0398 31.8875 32.4492 31.8398C32.5183 31.9137 32.5875 31.9875 32.6587 32.0636C32.8922 32.3293 32.8922 32.3293 33.2508 32.3415C33.4337 32.3336 33.4337 32.3336 33.6204 32.3254C33.7435 32.3213 33.8666 32.3172 33.9935 32.3129C34.134 32.305 34.134 32.305 34.2773 32.2969C34.2271 32.1461 34.1768 31.9952 34.125 31.8398C33.6745 31.6606 33.2174 31.5385 32.7509 31.4072C32.2534 31.2136 32.0109 31.0434 31.6875 30.6211C31.5677 30.1519 31.5842 29.7224 31.6875 29.25C32.0303 28.8891 32.3147 28.7079 32.7539 28.4883C32.9125 28.2382 33.0655 27.9845 33.2109 27.7266Z" fill="#FEE881"/>
<path d="M20.1094 8.83598C20.672 9.11198 20.9585 9.35317 21.3186 9.8643C21.5224 10.4877 21.5401 10.9552 21.3281 11.5782C20.8052 12.2282 20.3454 12.5939 19.519 12.7017C18.7715 12.612 18.3264 12.2656 17.8433 11.7019C17.5999 11.0935 17.5442 10.5478 17.6719 9.90239C18.3473 9.04442 19.0153 8.67021 20.1094 8.83598Z" fill="#CCE7FF"/>
<path d="M18.2241 21.0032C18.325 21.0031 18.4259 21.0029 18.5298 21.0028C18.7434 21.0027 18.957 21.003 19.1706 21.0036C19.4986 21.0044 19.8266 21.0036 20.1546 21.0026C20.3617 21.0027 20.5688 21.0029 20.7759 21.0032C21.0604 21.0035 21.0604 21.0035 21.3507 21.0037C21.7852 21.0235 21.7852 21.0235 21.9375 21.1758C21.9524 21.4039 21.9573 21.6327 21.9565 21.8613C21.9571 22.0475 21.9571 22.0475 21.9577 22.2374C21.9375 22.5469 21.9375 22.5469 21.7852 22.6992C21.449 22.7145 21.1124 22.7192 20.7759 22.7195C20.675 22.7196 20.5741 22.7198 20.4702 22.7199C20.2566 22.72 20.043 22.7197 19.8294 22.7191C19.5014 22.7183 19.1734 22.7191 18.8454 22.7201C18.6383 22.72 18.4312 22.7198 18.2241 22.7195C18.0344 22.7193 17.8447 22.7191 17.6493 22.7189C17.2148 22.6992 17.2148 22.6992 17.0625 22.5469C17.0476 22.3188 17.0427 22.0899 17.0435 21.8613C17.0431 21.7372 17.0427 21.6131 17.0423 21.4852C17.0871 20.8003 17.6594 21.0037 18.2241 21.0032Z" fill="#FE8747"/>
<path d="M22.8516 29.8594C23.6057 29.8594 24.3598 29.8594 25.1367 29.8594C25.1367 30.8146 25.1367 31.7698 25.1367 32.7539C24.3826 32.7539 23.6285 32.7539 22.8516 32.7539C22.8516 31.7987 22.8516 30.8435 22.8516 29.8594Z" fill="#7885BE"/>
<path d="M22.8516 32.7539C23.6057 32.7539 24.3598 32.7539 25.1367 32.7539C25.2387 34.427 25.2387 34.427 24.8035 34.9724C24.2216 35.4767 23.8492 35.65 23.0723 35.6449C22.8832 35.6272 22.6941 35.6095 22.4993 35.5913C22.3082 35.5744 22.1171 35.5575 21.9202 35.5401C21.7751 35.5256 21.63 35.5111 21.4805 35.4961C21.5967 35.4081 21.713 35.3201 21.8328 35.2295C22.3296 34.8136 22.649 34.5303 22.7772 33.8846C22.786 33.7503 22.7949 33.6159 22.804 33.4775C22.8197 33.2387 22.8354 32.9999 22.8516 32.7539Z" fill="#626C9A"/>
<path d="M14.7773 12.4922C14.8779 12.4922 14.9784 12.4922 15.082 12.4922C15.0843 12.5771 15.0865 12.6621 15.0888 12.7496C15.1004 13.1495 15.1146 13.5492 15.1296 13.949C15.1347 14.0946 15.1398 14.2402 15.1451 14.3902C15.1859 15.2846 15.3098 16.0676 15.5486 16.9292C15.7004 17.5801 15.7528 17.8517 15.4552 18.4568C15.1201 18.9001 15.1201 18.9001 14.7702 19.2768C14.4245 19.7131 14.368 20.0187 14.3203 20.5664C14.27 20.5664 14.2198 20.5664 14.168 20.5664C14.1162 19.9635 14.0658 19.3604 14.0156 18.7573C14.0011 18.5884 13.9866 18.4195 13.9716 18.2455C13.9074 17.4658 13.8492 16.6859 13.8252 15.9039C13.8213 15.7866 13.8173 15.6693 13.8133 15.5485C13.8771 15.1474 14.0329 14.9903 14.3203 14.7107C14.6702 14.369 14.7696 14.2236 14.838 13.73C14.8349 13.3139 14.8178 12.9062 14.7773 12.4922Z" fill="#1375E3"/>
<path d="M20.2617 35.4961C21.0158 35.4961 21.7699 35.4961 22.5469 35.4961C22.6404 37.1987 22.6404 37.1987 22.1851 37.8098C21.5396 38.2555 21.1824 38.255 20.395 38.2478C20.1998 38.2464 20.0046 38.2451 19.8035 38.2436C19.5779 38.241 19.5779 38.241 19.3477 38.2383C19.4702 38.1252 19.5927 38.0121 19.719 37.8955C20.314 37.1997 20.2324 36.3747 20.2617 35.4961Z" fill="#495586"/>
<path d="M23.918 14.168C24.5028 14.3977 24.8131 14.6963 25.1367 15.2344C25.1608 15.6797 25.1533 16.0532 25.1081 16.4912C25.0886 16.7344 25.0692 16.9776 25.0498 17.2208C25.0388 17.345 25.0277 17.4691 25.0163 17.597C24.9646 18.2116 24.9325 18.8271 24.8987 19.4429C24.8859 19.6607 24.873 19.8785 24.86 20.0963C24.8508 20.2514 24.8415 20.4066 24.832 20.5664C24.7817 20.5664 24.7315 20.5664 24.6797 20.5664C24.6514 20.3936 24.6231 20.2208 24.594 20.0427C24.4557 19.4491 24.2158 19.1431 23.8037 18.7002C23.4644 18.2899 23.3119 18.09 23.2961 17.5529C23.3794 17.077 23.4934 16.6164 23.6133 16.1484C23.6741 15.7809 23.7313 15.4127 23.7847 15.0439C23.8102 14.8766 23.8357 14.7093 23.862 14.5369C23.8805 14.4152 23.8989 14.2934 23.918 14.168Z" fill="#1276E5"/>
<path d="M19.5 8.83594C19.5 10.0425 19.5 11.2491 19.5 12.4922C18.2726 12.3168 18.2726 12.3168 17.8242 11.7305C17.6182 11.1124 17.5686 10.5479 17.6719 9.90234C18.1949 9.23796 18.637 8.83594 19.5 8.83594Z" fill="#F0F2FF"/>
<path d="M4.875 26.2032C6.4267 26.1169 7.80982 26.5332 8.98828 27.5742C10.1584 28.9724 10.3574 30.3534 10.207 32.1446C9.88968 33.4568 9.22361 34.3638 8.08374 35.0867C7.52383 35.4072 7.05387 35.614 6.39844 35.6485C6.69812 35.3488 6.90569 35.2332 7.28394 35.0581C8.46946 34.4718 9.13552 33.6975 9.6161 32.4701C9.94894 31.2822 9.89883 30.0413 9.32213 28.9442C9.26223 28.844 9.20234 28.7438 9.14062 28.6407C9.08544 28.5436 9.03026 28.4466 8.9734 28.3467C8.37802 27.4062 7.64815 26.9358 6.57339 26.6644C6.00973 26.5452 5.44382 26.4466 4.875 26.3555C4.875 26.3052 4.875 26.255 4.875 26.2032Z" fill="#F9AE03"/>
<path d="M27.4487 1.91748C27.8789 1.98056 27.8789 1.98056 28.0312 2.1329C28.0312 3.19151 27.5021 4.09042 26.8125 4.87509C26.415 5.0191 26.415 5.0191 26.0508 5.02744C25.9502 4.92689 25.8497 4.82634 25.7461 4.72275C25.7926 4.00105 26.0339 3.46356 26.384 2.83749C26.5145 2.59536 26.5145 2.59536 26.6477 2.34833C26.9648 1.98056 26.9648 1.98056 27.4487 1.91748Z" fill="#FCDB33"/>
<path d="M11.5876 1.97095C11.8092 1.97566 11.8092 1.97566 12.0352 1.98047C12.2443 2.3186 12.4499 2.65815 12.6541 2.99927C12.7135 3.09461 12.7729 3.18995 12.8341 3.28819C13.104 3.74441 13.2613 4.02742 13.2152 4.56377C13.1777 4.66647 13.1402 4.76918 13.1016 4.875C12.8502 4.92527 12.5988 4.97555 12.3398 5.02734C12.1119 4.68873 11.885 4.34951 11.6597 4.00914C11.4883 3.75063 11.3148 3.49354 11.1401 3.2373C10.9404 2.83782 10.9197 2.57394 10.9687 2.13281C11.1211 1.98047 11.1211 1.98047 11.5876 1.97095Z" fill="#FCDB34"/>
<path d="M34.4297 26.3555C35.6197 26.4447 36.4193 27.0772 37.2195 27.917C38.1464 29.0242 38.3306 30.0742 38.2906 31.503C38.1485 32.8307 37.5401 33.842 36.5625 34.7344C35.8885 35.2585 35.2979 35.5833 34.4297 35.6484C34.7305 35.3476 34.9149 35.2522 35.2961 35.0867C36.4695 34.5053 37.0763 33.72 37.5182 32.4998C37.9477 31.1212 37.8585 30.0914 37.254 28.7626C36.6006 27.5736 35.6465 27.0391 34.4297 26.5078C34.4297 26.4575 34.4297 26.4073 34.4297 26.3555Z" fill="#F9AE03"/>
<path d="M33.9727 7.61724C34.125 7.76958 34.125 7.76958 34.1738 8.13021C34.125 8.5313 34.125 8.5313 33.8572 8.78957C33.7382 8.86145 33.6192 8.93332 33.4966 9.00738C33.3713 9.08318 33.246 9.15898 33.1169 9.23708C32.9971 9.30581 32.8773 9.37455 32.7539 9.44536C32.5905 9.54591 32.4271 9.64646 32.2588 9.75005C31.8398 9.9024 31.8398 9.9024 31.4019 9.77862C31.295 9.71892 31.1882 9.65922 31.0781 9.59771C31.1001 9.17757 31.1001 9.17757 31.2305 8.68365C31.6131 8.36111 31.6131 8.36111 32.0969 8.09331C32.2546 8.00259 32.4123 7.91186 32.5748 7.81838C33.0862 7.60578 33.4249 7.56431 33.9727 7.61724Z" fill="#FCDA34"/>
<path d="M5.43379 7.57788C6.03438 7.62435 6.38266 7.79381 6.90308 8.09323C7.14256 8.22579 7.14256 8.22579 7.38689 8.36102C7.76953 8.68356 7.76953 8.68356 7.89986 9.17749C7.90712 9.31613 7.91439 9.45478 7.92188 9.59763C7.61005 9.78627 7.61005 9.78627 7.16016 9.90231C6.75393 9.72673 6.42465 9.55537 6.05566 9.3215C5.95865 9.26328 5.86164 9.20505 5.76169 9.14506C5.07037 8.72659 5.07037 8.72659 4.875 8.53122C4.85596 8.15036 4.85596 8.15036 4.875 7.7695C5.02734 7.61716 5.02734 7.61716 5.43379 7.57788Z" fill="#FCDB34"/>
<path d="M8.37891 22.3946C8.53125 22.547 8.53125 22.547 8.58005 22.9076C8.53125 23.3087 8.53125 23.3087 8.26346 23.5669C8.14445 23.6388 8.02544 23.7107 7.90283 23.7847C7.77774 23.8607 7.65264 23.9367 7.52376 24.015C7.40377 24.0836 7.28378 24.1521 7.16016 24.2227C6.99363 24.3201 6.82709 24.4175 6.65552 24.5179C6.22413 24.6885 6.05798 24.7056 5.63672 24.5274C5.53198 24.1751 5.53198 24.1751 5.48438 23.7657C6.13336 22.9577 7.33255 22.2068 8.37891 22.3946Z" fill="#FCDB34"/>
<path d="M31.0275 22.3547C31.6307 22.4021 31.9763 22.5762 32.4968 22.8802C32.6565 22.9703 32.8161 23.0605 32.9806 23.1534C33.3633 23.461 33.3633 23.461 33.5073 23.8609C33.5156 24.2227 33.5156 24.2227 33.2966 24.4989C33.2181 24.5586 33.1395 24.6183 33.0586 24.6798C32.1725 24.4466 31.1273 23.9672 30.4688 23.3087C30.4497 22.9278 30.4497 22.9278 30.4688 22.547C30.6211 22.3946 30.6211 22.3946 31.0275 22.3547Z" fill="#FCDB34"/>
<path d="M33.3966 15.6712C33.5907 15.671 33.5907 15.671 33.7888 15.6707C33.9929 15.6715 33.9929 15.6715 34.2012 15.6724C34.3373 15.6719 34.4734 15.6713 34.6136 15.6707C34.743 15.6709 34.8724 15.671 35.0057 15.6712C35.1252 15.6714 35.2447 15.6716 35.3679 15.6718C35.6484 15.6915 35.6484 15.6915 35.8008 15.8438C35.8293 16.2152 35.8293 16.2152 35.8008 16.6055C35.4404 16.9659 35.3662 16.9492 34.8772 16.9507C34.6952 16.9513 34.6952 16.9513 34.5094 16.9519C34.3826 16.9507 34.2557 16.9495 34.125 16.9483C33.9981 16.9495 33.8713 16.9507 33.7406 16.9519C33.6192 16.9515 33.4978 16.9511 33.3728 16.9507C33.2615 16.9504 33.1501 16.95 33.0354 16.9497C32.7539 16.9102 32.7539 16.9102 32.4492 16.6055C32.5451 15.8191 32.6177 15.6724 33.3966 15.6712Z" fill="#FCDA35"/>
<path d="M4.78931 15.6627C4.92412 15.6609 5.05894 15.659 5.19784 15.6571C5.32676 15.6568 5.45569 15.6565 5.58852 15.6562C5.70722 15.6556 5.82592 15.6549 5.94821 15.6543C6.24609 15.6913 6.24609 15.6913 6.55078 15.996C6.46615 16.69 6.46615 16.69 6.24609 16.91C5.79056 16.9293 5.34011 16.9383 4.88452 16.9386C4.75697 16.9405 4.62942 16.9423 4.49801 16.9443C4.31493 16.9447 4.31493 16.9447 4.12816 16.9452C4.01584 16.9458 3.90352 16.9464 3.7878 16.9471C3.50391 16.91 3.50391 16.91 3.19922 16.6054C3.17065 16.215 3.17065 16.215 3.19922 15.8436C3.54043 15.5024 4.33098 15.6631 4.78931 15.6627Z" fill="#FCDA35"/>
<path d="M32.2969 27.7267C32.1366 27.8241 31.9764 27.9215 31.8113 28.0218C31.1305 28.5199 30.7312 29.0547 30.4687 29.8595C30.2947 31.0704 30.3763 32.1305 30.99 33.2009C31.3637 33.6902 31.7678 33.9662 32.2969 34.2774C31.8398 34.4298 31.8398 34.4298 31.5554 34.2983C30.6906 33.6741 30.1617 33.0254 29.8594 31.9923C29.6988 30.8325 29.7173 29.7793 30.3723 28.78C31.498 27.4604 31.498 27.4604 32.2969 27.7267Z" fill="#F29E02"/>
<path d="M19.957 21.0234C20.2585 21.0193 20.5601 21.0164 20.8616 21.0139C21.0295 21.0121 21.1974 21.0104 21.3704 21.0085C21.7852 21.0234 21.7852 21.0234 21.9375 21.1758C21.9524 21.4039 21.9573 21.6327 21.9565 21.8613C21.9569 21.9854 21.9573 22.1095 21.9577 22.2374C21.9375 22.5469 21.9375 22.5469 21.7852 22.6992C21.4775 22.7102 21.1694 22.712 20.8616 22.7087C20.6933 22.7074 20.525 22.706 20.3516 22.7046C20.1563 22.7019 20.1563 22.7019 19.957 22.6992C19.957 22.1462 19.957 21.5932 19.957 21.0234Z" fill="#F26921"/>
<path d="M3.65625 27.7266C3.80707 27.7768 3.95789 27.8271 4.11328 27.8789C4.0306 27.9435 3.94793 28.0081 3.86274 28.0747C3.02014 28.7655 2.51516 29.3088 2.39049 30.4372C2.32661 31.9644 2.76089 32.9772 3.78241 34.0923C3.84132 34.1533 3.90024 34.2144 3.96094 34.2773C3.10333 34.0694 2.63357 33.4366 2.13281 32.7539C1.64475 31.799 1.67018 30.5313 1.98999 29.5166C2.31009 28.7702 2.92752 28.0909 3.65625 27.7266Z" fill="#F19C01"/>
<path d="M19.1953 24.9844C19.4467 25.0346 19.698 25.0849 19.957 25.1367C19.957 25.74 19.957 26.3433 19.957 26.9648C19.7057 27.0151 19.4543 27.0654 19.1953 27.1172C19.043 26.9648 19.043 26.9648 19.0227 26.5554C19.0231 26.3889 19.0235 26.2224 19.0239 26.0508C19.0235 25.8843 19.0231 25.7177 19.0227 25.5461C19.043 25.1367 19.043 25.1367 19.1953 24.9844Z" fill="#FF8C4B"/>
<path d="M21.0234 23.918C21.7403 24.0255 21.7403 24.0255 21.9375 24.2227C21.9524 24.4508 21.9573 24.6796 21.9565 24.9082C21.9569 25.0323 21.9573 25.1564 21.9577 25.2843C21.9375 25.5938 21.9375 25.5938 21.7852 25.7461C21.4043 25.7651 21.4043 25.7651 21.0234 25.7461C20.8711 25.5938 20.8711 25.5938 20.8509 25.251C20.8513 25.1127 20.8516 24.9745 20.8521 24.832C20.8517 24.6938 20.8513 24.5555 20.8509 24.4131C20.8711 24.0703 20.8711 24.0703 21.0234 23.918Z" fill="#FF8C4B"/>
<path d="M17.3672 23.918C17.7671 23.9751 17.7671 23.9751 18.1289 24.0703C18.133 24.321 18.136 24.5718 18.1384 24.8225C18.1402 24.9621 18.142 25.1018 18.1438 25.2456C18.1289 25.5938 18.1289 25.5938 17.9766 25.7461C17.5957 25.7651 17.5957 25.7651 17.2149 25.7461C16.9728 25.504 17.0366 25.2513 17.034 24.9177C17.0318 24.7954 17.0296 24.673 17.0274 24.547C17.0625 24.2227 17.0625 24.2227 17.3672 23.918Z" fill="#FF8C4B"/>
</g>
<defs>
<clipPath id="clip0_27_2233">
<rect width="39" height="39" fill="white"/>
</clipPath>
</defs>
</svg>
